<?xml version="1.0" standalone="no"?>
<!DOCTYPE svg PUBLIC "-//W3C//DTD SVG 20010904//EN"
 "http://www.w3.org/TR/2001/REC-SVG-20010904/DTD/svg10.dtd">
<svg version="1.0" xmlns="http://www.w3.org/2000/svg"
 width="400.000000pt" height="400.000000pt" viewBox="0 0 400.000000 400.000000"
 preserveAspectRatio="xMidYMid meet">
<metadata>
Created by potrace 1.11, written by Peter Selinger 2001-2013
</metadata>
<g transform="translate(0.000000,400.000000) scale(0.100000,-0.100000)"
fill="#000000" stroke="none">
<path d="M1589 3395 c-3 -2 -24 -7 -47 -10 -245 -30 -518 -164 -695 -340 -155
-154 -262 -356 -292 -550 -7 -44 -8 -138 -1 -171 2 -12 7 -39 10 -60 10 -59
25 -114 48 -172 18 -46 19 -55 7 -64 -11 -8 -10 -9 3 -4 13 4 24 -5 40 -37 12
-23 21 -45 20 -49 -1 -5 3 -8 9 -8 5 0 7 -4 4 -10 -3 -5 -11 -10 -16 -10 -6 0
-8 4 -5 9 3 5 0 11 -8 14 -8 3 -13 14 -12 24 2 10 1 12 -1 6 -8 -22 -20 -14
-20 12 0 15 4 22 11 18 6 -3 7 -2 3 2 -7 9 -28 15 -54 17 -16 2 -25 26 -15 43
5 10 12 11 22 5 10 -7 11 -10 3 -10 -7 0 -13 -5 -13 -11 0 -8 5 -7 16 2 14 12
14 14 0 25 -10 7 -14 19 -10 30 3 11 -1 9 -10 -6 -8 -14 -15 -21 -16 -16 0 5
-7 3 -15 -4 -10 -8 -15 -9 -15 -2 0 6 9 16 20 22 11 6 20 20 19 33 -1 21 -1
21 -9 -3 -4 -14 -9 -20 -9 -15 -1 6 -6 2 -12 -8 -10 -18 -11 -18 -32 0 -18 16
-18 14 3 -14 18 -25 26 -30 37 -22 9 8 13 8 13 1 0 -6 -4 -14 -10 -17 -5 -3
-10 -11 -10 -16 0 -6 4 -8 9 -5 5 3 11 -1 14 -9 4 -9 1 -12 -9 -8 -7 3 -14 1
-14 -4 0 -5 9 -9 20 -10 11 -1 20 4 20 10 0 7 4 6 10 -3 15 -24 12 -29 -17
-25 -16 2 -22 2 -15 -1 16 -8 5 -25 -12 -18 -8 3 -17 1 -21 -5 -4 -7 0 -8 11
-4 13 5 15 3 9 -8 -8 -12 -6 -12 8 -1 9 8 21 11 26 7 6 -3 8 0 5 8 -3 8 1 14
10 14 8 0 14 -9 13 -19 -1 -18 -9 -22 -37 -19 -13 2 -13 1 0 -8 11 -8 12 -11
2 -11 -9 0 -7 -8 7 -28 14 -21 17 -32 9 -40 -17 -17 1 -36 19 -20 14 11 15 10
9 -9 -4 -13 -1 -27 9 -36 8 -9 11 -18 6 -22 -11 -6 -10 -45 1 -45 4 0 8 5 8
11 0 6 7 8 16 5 9 -3 12 -2 9 5 -4 6 -14 8 -22 5 -9 -4 -13 -1 -10 6 2 7 11
11 18 9 8 -2 22 -3 32 -3 16 1 16 -1 2 -21 -8 -12 -21 -22 -28 -22 -6 0 -12
-10 -13 -22 -1 -15 3 -20 14 -15 11 4 12 7 4 10 -7 2 -12 8 -12 13 0 6 4 8 9
4 5 -3 12 -1 16 5 3 5 11 10 17 10 7 0 6 -5 -2 -15 -10 -12 -8 -13 10 -10 14
3 20 0 17 -8 -2 -7 -12 -11 -22 -9 -10 2 -14 -1 -10 -8 3 -6 12 -10 18 -9 7 1
17 1 23 0 13 -1 37 -51 25 -51 -5 0 -12 6 -14 13 -4 9 -6 9 -6 -1 -1 -7 15
-20 34 -29 19 -9 35 -21 35 -25 0 -5 -4 -7 -9 -4 -5 3 -12 -1 -15 -9 -4 -13
-2 -14 14 -5 24 13 26 28 5 36 -8 4 -12 10 -9 15 3 5 -2 6 -11 2 -15 -5 -15
-3 -4 16 8 11 17 21 22 21 4 0 6 -4 3 -8 -6 -10 28 -64 36 -57 3 3 11 -2 19
-11 12 -15 12 -16 -7 -10 -16 5 -23 0 -33 -20 -6 -15 -10 -29 -7 -31 2 -2 7 4
10 14 3 10 15 19 26 20 11 1 18 -2 15 -7 -3 -5 1 -15 9 -23 11 -11 12 -17 3
-28 -10 -11 -9 -11 4 -1 21 16 61 -11 53 -36 -5 -16 -5 -16 6 1 6 9 16 17 22
17 7 0 6 -5 -2 -15 -9 -10 -9 -15 -1 -15 6 0 11 4 11 9 0 5 7 8 15 7 25 -4 28
-14 6 -21 -12 -3 -21 -10 -21 -14 0 -15 45 -9 72 10 15 11 28 17 28 12 -1 -12
-30 -49 -30 -37 0 10 -20 -17 -20 -28 0 -5 5 -8 11 -8 5 0 8 4 5 9 -3 5 1 12
10 15 22 8 24 8 22 -6 -4 -16 34 -18 44 -3 4 5 5 -7 3 -27 -3 -21 0 -39 5 -39
6 -1 16 -2 23 -3 6 -1 11 -10 10 -20 -1 -13 2 -15 10 -7 8 8 8 14 -1 23 -15
15 -16 38 -2 38 6 0 9 -6 8 -12 -2 -8 8 -13 25 -12 20 1 27 -3 23 -13 -3 -8
-1 -11 4 -8 6 3 10 1 10 -4 0 -6 -5 -11 -10 -11 -6 0 -5 -8 2 -20 16 -24 26
-25 50 -3 17 15 18 15 18 0 0 -10 -4 -17 -10 -17 -5 0 -10 -4 -10 -10 0 -17
17 -11 26 10 8 19 11 19 32 5 12 -9 22 -21 22 -27 0 -6 -8 -4 -18 5 -16 15
-19 15 -30 -3 -7 -11 -12 -23 -12 -27 0 -5 5 0 11 10 5 9 15 17 21 17 7 0 6
-6 -2 -15 -7 -9 -10 -18 -7 -22 4 -3 9 2 13 11 3 9 10 14 15 11 10 -7 31 30
21 39 -3 4 1 4 11 0 14 -5 15 -9 6 -20 -9 -11 -8 -18 1 -29 10 -12 10 -18 0
-30 -7 -9 -10 -18 -7 -22 4 -3 11 5 17 19 11 23 40 35 40 16 0 -5 4 -7 9 -4 5
3 12 -1 15 -10 9 -24 7 -28 -9 -14 -10 9 -15 9 -15 1 0 -6 4 -11 10 -11 5 0 8
-6 6 -12 -1 -7 -1 -10 1 -6 3 4 16 0 30 -9 l25 -16 -24 -13 c-12 -7 -18 -13
-12 -14 5 0 19 7 30 15 16 13 17 16 4 25 -8 5 -13 10 -10 11 44 8 77 -2 45
-15 -9 -3 -12 -12 -8 -22 4 -12 3 -15 -5 -10 -7 4 -12 2 -12 -4 0 -7 6 -10 13
-7 6 2 11 12 11 21 -1 9 3 15 10 13 6 -3 10 -10 8 -16 -1 -7 2 -10 7 -7 9 6
27 -31 23 -47 -1 -5 2 -6 7 -2 6 3 8 12 5 20 -4 10 0 13 15 10 12 -2 21 1 21
7 0 16 13 1 16 -18 2 -11 -3 -13 -19 -8 -18 5 -20 4 -9 -7 10 -11 16 -11 33
-1 18 12 20 11 15 -5 -3 -10 -1 -25 4 -33 5 -8 10 -10 10 -5 0 6 5 3 10 -5 7
-10 10 -11 10 -2 0 7 -7 15 -15 18 -19 8 -19 21 0 21 8 0 17 -9 21 -19 3 -10
9 -18 14 -18 5 0 7 -9 5 -20 -2 -11 0 -18 4 -15 9 5 26 -23 23 -37 -1 -5 3 -8
9 -8 6 0 9 7 5 15 -3 8 2 19 12 24 9 6 12 11 7 11 -6 0 -15 -4 -21 -10 -6 -6
-14 -3 -22 10 -7 12 -8 21 -2 25 6 3 10 1 10 -4 0 -6 5 -11 12 -11 9 0 9 3 0
12 -16 16 -15 33 1 19 8 -6 18 -7 22 -3 5 4 5 -1 2 -11 -4 -9 -2 -17 2 -17 5
0 11 5 13 10 2 6 9 1 17 -11 11 -19 11 -21 -3 -16 -10 4 -13 1 -9 -9 4 -10 0
-13 -13 -8 -15 5 -16 4 -5 -4 16 -11 41 -5 41 10 0 6 8 4 17 -3 11 -10 14 -10
9 -1 -4 6 -2 12 3 12 6 0 11 -7 11 -16 0 -10 6 -14 15 -11 8 4 17 2 20 -3 6
-9 -8 -14 -28 -11 -5 1 -6 -3 -2 -9 3 -5 1 -10 -6 -10 -7 0 -10 -3 -6 -6 3 -3
18 3 34 13 28 20 53 20 53 1 0 -6 -6 -8 -14 -5 -8 3 -22 0 -32 -7 -13 -10 -14
-15 -4 -21 9 -6 11 -4 6 4 -5 8 -3 12 5 10 29 -3 39 2 52 27 8 15 17 22 20 16
4 -5 -6 -24 -22 -41 -34 -36 -31 -39 9 -9 16 11 27 25 24 30 -3 4 -1 8 5 8 19
0 21 -19 3 -32 -10 -7 -22 -20 -27 -28 -4 -8 6 -2 23 14 30 27 47 25 20 -2 -9
-9 -9 -12 1 -12 7 0 10 -4 7 -8 -3 -5 2 -9 10 -9 10 0 11 4 4 11 -5 5 -10 14
-10 20 0 6 5 5 12 -2 17 -17 23 -15 36 14 9 19 9 24 1 18 -8 -5 -9 -3 -4 6 5
8 4 11 -3 6 -6 -3 -13 -2 -17 4 -4 6 -11 7 -17 4 -6 -4 -8 -2 -4 4 4 7 -3 9
-21 6 -22 -4 -25 -2 -13 7 13 9 13 10 -2 5 -10 -3 -20 -1 -24 5 -3 6 -13 8
-21 5 -9 -4 -11 -2 -7 6 5 7 3 8 -6 3 -9 -6 -11 -4 -5 5 5 8 4 11 -3 6 -6 -3
-13 -2 -17 4 -4 6 -11 8 -16 5 -5 -4 -9 -1 -9 6 0 7 -7 4 -15 -7 -10 -13 -13
-14 -10 -3 8 22 -21 45 -38 30 -10 -8 -19 -7 -33 3 -17 13 -17 16 -3 33 29 33
30 40 4 37 -24 -2 -32 6 -19 19 7 7 67 -13 75 -25 3 -6 10 -10 15 -11 5 -1 8
-9 6 -17 -2 -11 1 -10 12 3 8 10 17 14 20 9 5 -9 63 -26 79 -23 4 0 7 -4 7
-10 0 -5 5 -7 10 -4 6 3 10 2 10 -4 0 -5 -5 -13 -10 -16 -5 -3 -10 -12 -10
-18 0 -8 3 -7 9 2 7 11 10 11 14 0 4 -9 6 -6 4 5 -1 10 3 21 10 23 7 3 10 -4
6 -19 -5 -23 -5 -23 10 -3 12 15 18 17 28 8 6 -6 18 -9 25 -6 8 3 14 1 14 -4
0 -13 -32 -13 -47 0 -12 9 -18 -2 -14 -26 0 -4 -4 -7 -10 -7 -5 0 -7 -5 -3
-11 4 -8 9 -7 15 2 7 12 9 12 9 0 0 -8 3 -11 7 -8 3 4 12 2 18 -3 7 -6 20 -7
29 -4 13 5 14 9 5 21 -18 21 2 36 33 24 14 -5 29 -7 32 -4 3 4 6 2 6 -3 0 -5
10 -10 23 -10 54 -3 83 -8 95 -17 6 -5 12 -6 12 -1 0 4 7 -1 16 -12 11 -13 14
-14 11 -3 -4 11 1 15 16 13 12 -1 28 -3 35 -3 6 -1 12 -6 12 -12 0 -6 -7 -9
-15 -6 -8 4 -17 2 -20 -4 -4 -5 -11 -7 -16 -3 -6 3 -7 -8 -4 -28 3 -21 2 -28
-4 -19 -6 9 -11 10 -15 2 -4 -6 -13 -11 -19 -11 -7 0 -4 7 5 14 17 12 17 14
-2 31 -21 19 -28 7 -8 -13 7 -7 10 -12 8 -13 -3 0 -13 -2 -23 -4 -10 -2 -14 1
-11 7 5 7 2 8 -6 3 -9 -6 -11 -4 -5 5 5 9 4 11 -4 6 -9 -6 -9 -11 1 -24 7 -9
-2 -5 -19 8 -18 13 -33 27 -33 31 0 14 24 23 28 10 3 -9 9 -8 23 5 10 9 19 13
19 8 0 -6 10 -10 23 -11 l22 -2 -24 13 c-13 7 -36 12 -52 10 -16 -2 -29 0 -29
6 0 5 -12 7 -27 5 -16 -1 -38 3 -50 11 -16 10 -24 11 -29 2 -5 -7 -3 -8 6 -3
9 6 11 4 5 -6 -5 -8 -5 -11 0 -7 4 4 17 3 27 -3 15 -8 17 -14 9 -22 -16 -16
-14 -32 2 -18 8 6 17 8 21 4 4 -4 4 0 0 10 -3 9 -2 17 3 17 5 0 9 -9 10 -21 1
-15 -2 -19 -15 -15 -15 5 -15 4 1 -8 16 -12 16 -14 2 -20 -11 -4 -14 -2 -9 7
5 8 2 7 -9 -2 -10 -8 -20 -11 -24 -7 -3 3 -1 6 6 6 7 0 9 5 6 11 -5 6 -12 4
-20 -8 -7 -10 -11 -21 -9 -25 3 -5 1 -8 -4 -8 -19 0 -20 27 -1 38 10 7 19 18
19 25 0 9 -3 8 -9 -2 -5 -7 -11 -9 -13 -5 -3 5 -3 3 -2 -3 2 -7 -1 -13 -6 -13
-6 0 -10 7 -10 15 0 21 -15 19 -17 -3 -1 -10 7 -28 17 -42 15 -19 21 -22 32
-12 8 6 18 9 21 5 4 -3 7 -1 7 4 0 20 33 7 57 -23 13 -16 23 -24 22 -19 -4 20
13 44 27 38 8 -3 14 0 14 7 0 6 5 8 10 5 6 -4 8 -10 6 -14 -3 -4 0 -13 5 -21
8 -13 10 -13 18 0 5 8 7 18 4 23 -3 5 0 7 8 5 8 -3 13 -10 12 -16 -2 -7 4 -9
14 -5 9 4 14 2 10 -3 -3 -6 4 -16 16 -24 20 -12 21 -12 8 4 -8 9 -11 19 -7 23
3 4 12 -2 20 -12 7 -10 18 -15 24 -11 7 4 12 2 12 -3 0 -6 5 -11 12 -11 9 0 9
3 0 12 -21 21 -13 32 8 13 19 -17 22 -18 35 -2 8 9 10 12 3 7 -19 -15 -32 -12
-18 5 7 8 9 15 4 15 -5 0 -4 4 1 8 6 4 16 15 23 24 12 15 11 17 -7 15 -12 -1
-20 -7 -18 -13 1 -7 -2 -14 -7 -16 -5 -2 -10 7 -11 19 -2 26 -15 44 -15 22 0
-11 -2 -11 -10 1 -5 8 -10 10 -10 5 0 -6 -10 -11 -21 -12 -24 -2 -35 -10 -26
-19 4 -4 14 -1 24 7 15 12 16 12 8 -1 -8 -13 -7 -13 8 -1 10 7 17 9 17 3 0 -6
-6 -12 -12 -15 -8 -2 -9 -8 -4 -13 5 -5 11 -4 13 4 3 6 9 10 14 7 5 -4 3 -12
-3 -19 -11 -11 -16 -11 -34 1 -12 7 -29 11 -38 7 -9 -3 -16 -1 -16 6 0 6 6 8
13 4 10 -6 10 -4 0 7 -14 14 -17 30 -5 27 16 -4 52 14 46 24 -4 6 2 6 15 -1
16 -9 21 -9 21 1 0 8 3 9 8 3 7 -10 192 -15 192 -5 0 3 15 6 33 6 17 0 45 4
62 8 16 4 27 4 23 0 -4 -4 0 -12 9 -19 12 -9 13 -16 5 -31 -11 -18 -13 -17
-16 15 -2 20 -26 26 -26 6 0 -9 -5 -13 -10 -10 -6 4 -7 12 -3 18 3 7 -4 3 -17
-8 l-23 -20 7 20 c4 11 -7 3 -25 -18 -25 -30 -34 -35 -45 -26 -8 6 -14 8 -14
4 0 -4 -8 -1 -17 6 -17 13 -17 13 -3 -6 13 -18 13 -19 0 -8 -13 10 -21 8 -44
-10 -29 -23 -29 -54 1 -54 13 0 13 2 -2 14 -10 7 -16 15 -13 19 4 3 15 -3 26
-14 19 -19 21 -19 27 -4 6 15 8 15 18 2 13 -17 45 -20 66 -6 10 7 12 3 6 -15
-5 -19 -4 -21 4 -9 6 8 11 10 11 4 0 -7 8 -15 17 -18 15 -6 15 -4 -2 14 -10
11 -16 23 -13 25 3 3 17 -7 30 -23 23 -27 26 -28 36 -12 13 21 39 20 54 -1 8
-11 9 -11 5 3 -3 9 3 26 13 38 10 12 16 29 13 40 -7 25 3 26 16 1 8 -14 6 -25
-10 -45 -15 -19 -17 -24 -5 -20 9 3 16 11 16 17 0 6 3 7 7 4 3 -4 17 0 29 8
17 11 24 12 27 2 2 -6 8 -9 11 -5 4 3 -2 16 -14 28 -21 21 -21 22 -3 35 26 21
39 18 19 -4 -15 -17 -15 -19 -1 -25 22 -8 25 -8 25 5 0 5 -5 7 -10 4 -6 -3
-10 -2 -10 4 0 19 19 21 32 3 12 -17 14 -17 31 0 9 10 13 18 9 18 -4 0 -13 -5
-20 -12 -18 -18 -15 -5 10 41 17 32 24 38 35 30 17 -15 17 -30 -1 -23 -22 9
-30 -16 -10 -31 16 -12 21 -12 30 0 6 8 15 11 20 7 4 -4 2 1 -5 11 -16 21 -13
25 20 30 14 2 30 -3 37 -12 12 -15 13 -14 8 1 -3 9 -2 19 2 21 4 2 1 2 -5 1
-20 -5 -45 37 -31 53 6 7 15 13 20 13 6 0 5 -7 -2 -15 -21 -26 16 -43 51 -24
11 5 20 5 24 0 3 -5 -3 -12 -14 -16 -11 -3 -22 -12 -25 -20 -3 -9 0 -12 10 -8
7 3 14 9 14 13 0 4 7 11 16 14 12 5 15 2 10 -9 -4 -11 -2 -14 6 -9 7 5 9 2 6
-7 -4 -10 1 -15 12 -15 16 0 14 6 -12 38 -16 21 -33 38 -37 38 -4 0 -7 9 -8
19 -1 13 3 18 13 14 7 -3 11 -9 8 -14 -3 -5 2 -12 10 -15 8 -3 18 -15 22 -26
6 -19 6 -19 21 2 11 16 12 24 4 29 -8 5 -7 13 3 27 12 16 17 17 28 6 11 -11
10 -12 -6 -6 -14 5 -17 4 -12 -7 3 -8 9 -22 12 -31 4 -10 10 -18 16 -18 5 0 4
9 -2 20 -8 15 -6 21 9 30 24 12 34 13 26 1 -6 -11 33 -26 42 -17 4 3 -1 6 -10
6 -9 0 -17 5 -17 10 0 13 6 13 31 -1 11 -5 17 -14 14 -20 -4 -5 1 -12 9 -15 9
-3 14 -10 11 -14 -3 -5 -1 -11 4 -14 5 -4 8 1 7 10 -1 8 -9 20 -17 25 -8 5
-10 9 -5 9 5 0 3 6 -3 14 -9 11 -9 15 1 19 7 3 -4 4 -25 2 -24 -1 -36 2 -34 9
2 6 14 10 26 9 13 -2 21 3 21 12 0 8 4 15 10 15 5 0 7 -6 4 -14 -4 -9 3 -13
20 -13 14 0 23 3 21 8 -3 4 -1 10 5 14 5 3 10 1 10 -6 0 -7 3 -9 6 -6 4 4 1
13 -5 21 -8 10 -9 16 -1 21 5 3 10 1 10 -4 0 -6 5 -11 11 -11 8 0 7 5 -1 15
-7 9 -9 19 -5 23 4 4 10 1 12 -5 3 -7 10 -13 16 -13 7 1 1 10 -12 20 -17 15
-19 20 -8 20 9 0 19 -4 22 -10 3 -5 12 -10 18 -10 7 0 4 5 -5 11 -10 5 -18 15
-18 21 0 6 7 5 18 -3 14 -11 15 -11 5 1 -17 18 -17 38 -1 22 15 -15 28 -16 28
-2 0 6 -6 9 -12 8 -8 -2 -12 5 -10 16 2 10 -1 15 -7 12 -5 -4 -9 2 -8 14 2 24
13 26 21 4 4 -9 9 -14 13 -10 3 3 -2 15 -12 26 -14 16 -20 17 -27 8 -5 -9 -8
-10 -8 -1 0 21 21 26 39 9 20 -19 31 -20 31 -5 0 5 -4 8 -9 4 -5 -3 -12 -1
-15 4 -4 5 4 12 16 14 l23 4 -22 2 c-26 1 -30 16 -8 25 8 3 15 11 15 17 0 7 8
18 18 26 15 13 15 13 -6 3 -20 -10 -24 -9 -29 9 -5 21 -25 30 -21 10 2 -6 -4
-14 -12 -16 -12 -4 -12 -3 -1 5 8 6 9 12 3 16 -5 3 -12 -1 -16 -9 -7 -18 7
-27 30 -18 13 5 15 3 9 -7 -5 -9 -4 -11 3 -6 7 4 12 1 12 -9 0 -13 -4 -14 -21
-5 -11 7 -23 9 -27 6 -3 -3 -1 -6 4 -6 5 0 10 -9 11 -20 2 -23 -7 -25 -26 -7
-11 10 -12 9 -6 -2 6 -10 4 -12 -6 -6 -11 7 -11 5 1 -10 12 -15 12 -17 1 -10
-10 5 -12 4 -7 -4 12 -18 18 -69 7 -51 -5 8 -7 18 -5 22 3 4 0 8 -5 8 -6 0
-10 5 -9 11 2 6 -3 14 -10 16 -10 4 -9 -3 3 -27 9 -18 12 -30 7 -26 -5 3 -15
-1 -22 -9 -7 -8 -9 -15 -4 -15 5 0 2 -5 -6 -10 -10 -7 -11 -10 -2 -10 8 0 5
-10 -9 -29 -13 -18 -29 -28 -40 -26 -13 3 -17 -2 -14 -16 2 -12 0 -17 -7 -13
-6 4 -6 -1 1 -15 10 -17 9 -20 -3 -15 -9 3 -14 11 -13 17 1 7 -4 11 -10 9 -7
-1 -13 4 -13 10 0 9 -4 8 -10 -2 -6 -10 -10 -11 -10 -2 0 6 -5 12 -11 12 -5 0
-7 -4 -4 -10 4 -6 -1 -7 -10 -3 -14 5 -11 10 15 26 17 11 29 22 26 25 -3 3
-13 -1 -23 -9 -14 -12 -16 -12 -8 0 6 10 4 12 -5 6 -9 -6 -11 -4 -6 6 4 8 1 6
-7 -3 -8 -10 -18 -14 -23 -10 -4 4 -2 -1 5 -11 13 -16 12 -18 -12 -13 -20 3
-24 1 -20 -11 5 -12 7 -12 14 -1 7 10 9 10 9 0 0 -6 3 -11 8 -11 19 3 28 -3
29 -20 1 -14 -5 -18 -28 -17 -16 0 -29 4 -29 8 0 5 -3 7 -7 7 -5 -1 -15 -1
-23 0 -12 1 -12 4 3 12 9 5 17 15 17 20 0 6 -8 3 -17 -7 -10 -10 -18 -21 -18
-25 0 -15 -13 -19 -18 -6 -6 15 108 111 123 102 5 -3 12 0 16 6 4 7 3 9 -4 5
-6 -3 -13 -2 -17 4 -3 5 1 10 10 10 9 0 14 4 11 8 -3 5 3 16 13 24 11 9 24 24
29 34 6 11 14 16 18 12 4 -4 1 -16 -7 -25 -7 -10 -10 -15 -5 -11 5 4 17 3 27
-2 12 -7 20 -7 24 0 6 9 -7 14 -27 11 -4 0 -5 5 -2 13 3 8 1 17 -5 21 -10 6
20 60 44 77 6 4 6 8 1 8 -4 0 -1 11 8 25 9 14 14 25 10 25 -4 0 -1 7 6 15 7 9
10 18 7 22 -4 3 -1 15 6 27 6 11 12 30 13 41 11 101 16 130 25 136 7 4 8 8 1
10 -5 2 -13 35 -17 74 -4 38 -10 74 -13 80 -3 5 -7 16 -8 25 -4 22 -9 41 -23
75 -17 45 -21 55 -18 58 1 1 -4 9 -10 17 -7 8 -36 51 -65 95 -95 145 -267 299
-457 408 -85 49 -205 107 -248 121 -16 5 -26 20 -33 49 -65 267 -172 453 -340
589 -92 74 -220 129 -363 155 -40 7 -302 14 -308 8z m363 -399 c169 -21 325
-101 403 -207 12 -16 14 -99 3 -99 -48 0 -58 1 -53 10 3 5 0 7 -8 4 -12 -4
-85 5 -154 20 -95 20 -340 27 -428 12 -22 -4 -66 -12 -98 -17 -102 -18 -235
-67 -299 -111 -16 -11 -28 -16 -28 -11 0 4 -7 -3 -16 -16 -13 -18 -18 -20 -25
-10 -7 12 -9 11 -10 -1 -1 -8 -1 -18 0 -22 0 -4 -10 -10 -24 -14 -13 -3 -23
-9 -22 -13 1 -4 -19 -35 -44 -69 -30 -41 -49 -58 -53 -50 -3 7 -5 4 -2 -8 2
-12 -5 -32 -15 -45 -10 -13 -19 -30 -19 -36 0 -7 -8 -13 -17 -14 -13 0 -14 -2
-4 -6 10 -4 8 -9 -9 -18 -15 -8 -19 -15 -11 -19 6 -4 11 -2 11 3 0 6 4 11 9
11 5 0 4 -11 -2 -25 -13 -27 -33 -35 -23 -10 3 9 -1 18 -9 21 -11 5 -11 10 5
27 11 11 17 23 14 26 -3 3 -18 -9 -33 -26 -28 -34 -41 -41 -41 -22 0 5 5 7 10
4 6 -3 10 -2 10 3 0 4 8 17 18 28 17 19 28 54 17 54 -3 0 -14 -15 -25 -32 -11
-18 -20 -29 -20 -23 0 5 -7 0 -15 -13 -13 -18 -19 -20 -35 -10 -17 11 -17 14
-4 21 9 5 18 6 21 3 4 -3 1 -6 -6 -6 -7 0 -9 -5 -6 -10 4 -7 16 -1 31 15 28
30 33 56 7 33 -10 -8 -25 -16 -33 -17 -8 0 -26 -3 -40 -5 -14 -2 -29 -5 -35
-5 -5 -1 6 -9 24 -19 32 -17 51 -52 29 -52 -6 0 -8 7 -4 15 8 21 -8 19 -29 -5
-13 -14 -15 -23 -7 -33 13 -15 -1 -43 -17 -33 -6 4 -11 2 -11 -4 0 -6 6 -13
14 -16 20 -8 26 -28 14 -45 -8 -11 -9 -11 -4 3 3 10 1 20 -4 23 -6 4 -11 1
-11 -4 -1 -6 -2 -17 -3 -23 -1 -7 3 -16 8 -20 6 -4 7 -10 3 -14 -8 -9 -18 -1
-21 18 -1 7 -5 19 -9 26 -5 6 -4 12 1 12 5 0 9 7 9 15 0 8 -4 15 -9 15 -5 0
-5 8 0 18 4 9 7 34 7 55 -1 21 2 40 6 43 4 2 6 13 4 24 -2 11 1 20 7 20 6 0 9
3 5 6 -7 7 17 76 46 132 14 27 27 40 36 37 11 -4 11 -2 2 9 -7 9 -8 17 -2 20
5 3 12 0 15 -6 2 -7 4 -4 3 7 -2 26 39 80 123 165 72 71 84 81 150 127 45 31
181 103 203 107 7 2 19 6 27 9 68 27 214 61 295 70 38 4 150 0 207 -7z m-162
-646 c0 -3 25 -3 56 0 30 3 57 2 60 -2 3 -5 10 -6 15 -3 5 4 9 1 9 -5 0 -6 5
-8 13 -3 16 10 39 13 50 6 5 -3 30 -7 55 -9 55 -4 73 -7 87 -15 6 -4 20 -5 33
-4 29 2 28 -19 -3 -43 -13 -11 -21 -23 -17 -27 4 -3 3 -5 -3 -3 -5 2 -11 -1
-12 -5 -4 -13 -63 -60 -69 -54 -8 8 6 47 17 47 5 0 9 -5 9 -11 0 -5 5 -7 10
-4 6 4 8 10 5 15 -3 4 2 11 11 14 14 5 14 9 3 24 -13 15 -12 16 4 3 11 -9 17
-10 17 -2 0 6 -10 16 -22 21 -18 7 -19 9 -5 9 9 1 17 5 17 9 0 4 -17 7 -37 6
-21 0 -41 4 -45 10 -4 6 -15 3 -29 -9 -12 -11 -19 -15 -16 -8 4 6 3 14 -2 17
-5 4 -11 1 -14 -6 -2 -7 -3 -5 -2 5 4 22 -3 22 -27 0 -17 -15 -21 -15 -29 -3
-7 13 -10 13 -18 1 -7 -10 -13 -11 -27 -1 -17 10 -17 11 -1 6 11 -3 15 -2 12
4 -16 26 -59 -7 -48 -37 5 -15 -14 -26 -22 -13 -8 13 -35 13 -35 0 0 -5 6 -9
13 -7 7 1 11 -7 10 -20 -2 -13 2 -23 7 -23 6 0 10 8 11 18 0 11 2 12 6 4 5
-14 -25 -54 -36 -47 -4 2 -12 -5 -19 -16 -7 -10 -8 -19 -3 -19 6 0 13 5 17 11
5 8 10 6 16 -5 5 -9 6 -21 3 -27 -8 -12 14 -41 26 -33 5 3 9 0 9 -5 0 -14 -13
-14 -26 -1 -7 7 -15 2 -24 -16 -8 -14 -22 -30 -32 -35 -10 -5 -18 -14 -18 -19
0 -6 15 0 34 12 19 13 32 26 30 30 -3 5 0 8 5 8 18 0 12 -17 -11 -33 l-23 -15
23 1 c12 1 22 5 22 9 0 4 3 7 8 6 4 -1 16 3 27 9 17 10 21 9 22 -6 2 -21 -53
-55 -60 -37 -3 7 -16 12 -29 10 -12 -1 -27 -3 -31 -3 -5 -1 -5 -6 -1 -13 4 -6
3 -8 -3 -5 -6 4 -18 -2 -27 -12 -13 -14 -14 -21 -5 -27 7 -4 10 -3 6 3 -8 12
20 26 34 17 5 -3 9 1 9 8 0 8 9 14 20 14 11 0 20 -3 20 -6 0 -5 -75 -40 -85
-40 -3 0 -18 -6 -34 -14 -16 -9 -31 -12 -35 -9 -3 4 -6 1 -6 -5 0 -6 -7 -9
-15 -6 -8 4 -15 1 -15 -4 0 -6 -8 -10 -17 -10 -10 0 -31 -3 -48 -7 -81 -19
-148 -24 -157 -11 -5 7 -8 7 -8 -1 0 -7 -5 -13 -11 -13 -5 0 -7 5 -3 12 5 8 2
9 -11 5 -14 -6 -16 -3 -12 13 5 18 3 19 -11 8 -9 -7 -14 -8 -10 -4 4 5 0 15
-10 22 -16 12 -16 13 0 19 10 4 15 12 11 18 -3 6 -1 7 6 3 6 -4 19 -2 28 6 14
11 16 11 8 -1 -5 -9 -4 -12 3 -7 6 4 8 14 5 23 -4 11 -3 14 6 9 7 -5 10 -14 7
-21 -3 -9 2 -12 15 -10 13 3 17 0 14 -8 -4 -7 0 -3 9 7 8 10 13 22 11 27 -3 4
4 10 15 14 11 3 20 14 20 23 0 13 -2 13 -14 -4 -8 -10 -18 -16 -22 -11 -4 4
-16 0 -26 -10 -20 -18 -25 -4 -6 15 9 9 9 12 0 12 -7 0 -12 -4 -12 -10 0 -5
-5 -10 -10 -10 -7 0 -7 7 0 23 11 21 10 21 -4 3 -9 -10 -13 -23 -10 -27 6 -11
1 -11 -20 -3 -9 3 -16 10 -16 16 0 5 5 6 10 3 6 -3 10 -1 10 4 0 14 -6 14 -31
1 -24 -14 -26 5 -1 19 9 6 13 11 7 11 -18 2 -40 8 -57 15 -22 9 -22 -4 -1 -30
14 -18 15 -18 9 -2 -4 13 -2 17 6 14 7 -2 12 -14 10 -26 -3 -16 1 -21 14 -19
9 2 19 -2 21 -9 3 -7 -5 -10 -22 -9 -21 3 -23 1 -13 -11 9 -11 13 -11 19 -1
10 15 12 6 3 -16 -9 -23 -17 -20 -37 13 -13 22 -14 30 -5 34 9 4 7 6 -3 6 -16
1 -21 12 -47 90 -10 29 -9 38 5 53 9 10 22 17 29 14 9 -3 11 1 7 11 -4 10 -2
14 5 9 6 -3 14 0 19 8 12 22 150 83 225 101 99 23 140 26 131 12 -4 -7 1 -6
11 2 14 12 21 13 38 2 11 -7 17 -8 13 -2 -3 6 -2 11 4 11 18 0 21 -18 4 -31
-13 -11 -17 -11 -20 -1 -5 13 -23 17 -23 4 0 -5 11 -14 25 -20 14 -6 25 -16
25 -22 0 -12 -21 -9 -35 6 -17 18 -45 25 -39 9 3 -8 13 -11 21 -8 11 4 14 2 9
-5 -4 -7 -2 -13 3 -13 26 -3 30 -4 37 -11 4 -5 2 -8 -5 -8 -8 0 -10 -8 -7 -22
l6 -23 -11 22 c-6 12 -18 24 -27 28 -13 5 -13 3 -1 -11 17 -21 18 -55 2 -72
-7 -7 -10 -19 -7 -26 3 -8 -5 -21 -17 -30 -27 -18 -42 -10 -16 9 20 14 15 35
-13 53 -14 8 -21 9 -26 0 -4 -6 -3 -8 3 -5 6 4 18 -2 27 -12 14 -16 15 -20 2
-30 -11 -9 -15 -9 -18 1 -3 8 -7 6 -11 -6 -4 -9 -3 -15 2 -12 12 8 21 -18 11
-34 -9 -15 -1 -50 11 -50 11 0 7 22 -4 31 -5 3 -1 9 8 12 11 5 14 3 10 -6 -4
-6 1 -3 9 7 9 11 19 17 22 13 4 -4 2 -13 -4 -20 -9 -11 -5 -13 18 -13 24 0 29
3 25 20 -2 12 -4 21 -5 21 -1 0 -3 8 -5 18 -2 9 1 17 7 17 6 0 8 -7 5 -14 -4
-10 -1 -13 8 -9 8 3 13 8 11 12 -3 4 -1 13 3 20 7 10 13 11 31 1 18 -10 21 -9
17 2 -2 7 -10 12 -16 11 -6 -2 -11 2 -11 8 0 5 -4 8 -8 5 -11 -7 -52 22 -52
36 0 6 9 3 19 -6 11 -10 21 -13 25 -7 4 5 2 12 -4 16 -6 4 -8 11 -5 16 4 5 0
9 -7 9 -7 1 1 12 17 26 l30 24 -25 20 c-15 12 -18 18 -7 14 10 -4 17 -1 17 7
0 7 6 5 14 -7 8 -10 17 -17 20 -14 9 9 -10 31 -29 34 -26 4 -30 22 -5 22 11 0
20 -3 20 -6z m-20 -71 c0 -4 -7 -10 -16 -13 -9 -3 -12 -2 -9 5 4 5 1 17 -7 26
-12 15 -11 15 10 2 12 -8 22 -17 22 -20z m118 8 c2 -9 -1 -17 -7 -17 -6 0 -7
7 -4 17 4 11 3 14 -5 9 -7 -4 -12 -2 -12 4 0 18 25 6 28 -13z m82 13 c0 -5 -8
-10 -17 -10 -15 0 -16 2 -3 10 19 12 20 12 20 0z m90 -5 c0 -2 -9 -3 -19 -2
-11 0 -18 5 -15 9 4 6 34 0 34 -7z m-114 -22 c-6 -6 -36 9 -36 18 0 5 9 4 20
-3 10 -7 18 -14 16 -15z m70 -2 c1 -6 0 -7 -3 -1 -2 5 -9 8 -13 5 -5 -3 -11
-1 -14 4 -4 5 2 8 11 7 9 -2 18 -8 19 -15z m-154 -37 c-8 -14 -9 -13 -9 10 0
18 3 24 9 18 7 -7 7 -16 0 -28z m244 24 c4 -7 3 -8 -4 -4 -7 4 -12 2 -12 -4 0
-6 -5 -8 -11 -4 -8 4 -7 9 2 15 18 11 17 11 25 -3z m-173 -12 c4 -10 0 -12
-15 -8 -14 3 -19 1 -14 -6 7 -12 -32 -38 -42 -28 -3 3 0 6 7 6 7 0 9 4 6 10
-4 6 1 7 11 3 11 -4 15 -3 10 5 -5 8 14 28 30 32 1 0 4 -6 7 -14z m50 -7 c-4
-15 -8 -17 -14 -8 -6 11 4 28 18 29 0 0 -1 -9 -4 -21z m-1038 -9 c0 -7 -11
-15 -25 -17 -18 -2 -21 -1 -10 6 8 5 18 7 22 5 4 -3 8 -1 8 5 0 5 -5 12 -10
14 -6 3 -5 4 2 3 7 -2 13 -9 13 -16z m52 5 c0 -8 -4 -12 -9 -9 -4 3 -8 9 -8
15 0 5 4 9 8 9 5 0 9 -7 9 -15z m1063 1 c0 -2 -7 -7 -16 -10 -8 -3 -12 -2 -9
4 6 10 25 14 25 6z m-1175 -16 c3 -5 1 -10 -4 -10 -6 0 -11 5 -11 10 0 6 2 10
4 10 3 0 8 -4 11 -10z m71 -22 c-9 -12 -16 -19 -16 -15 0 11 24 47 28 42 2 -2
-3 -14 -12 -27z m1048 16 c3 -8 2 -12 -4 -9 -6 3 -10 10 -10 16 0 14 7 11 14
-7z m-984 -14 c0 -5 -8 -14 -17 -19 -10 -6 -13 -11 -7 -11 6 0 11 -7 11 -15 0
-8 -3 -12 -7 -10 -4 2 -6 -40 -5 -94 2 -96 2 -98 -17 -82 -10 9 -22 16 -27 16
-13 0 -101 65 -101 75 0 5 7 15 15 23 8 8 11 18 7 22 -4 5 -1 5 6 1 10 -6 10
-11 2 -21 -18 -22 -3 -37 23 -24 20 9 20 9 5 -4 -24 -19 -23 -30 2 -17 14 7
20 7 20 0 0 -5 -7 -10 -16 -10 -8 0 -12 -5 -9 -10 4 -6 11 -8 16 -5 5 4 9 2 9
-4 0 -13 33 -7 38 7 2 8 -3 10 -15 6 -14 -5 -15 -4 -4 4 8 6 20 8 28 5 7 -3
13 0 13 6 0 6 -4 11 -9 11 -5 0 -8 11 -8 25 0 14 3 25 7 25 13 0 5 29 -13 50
-18 22 -9 28 11 8 7 -7 12 -8 12 -2 0 6 -5 15 -11 21 -6 6 -8 16 -5 22 9 13
46 15 46 1z m830 -1 c0 -5 -5 -7 -12 -3 -8 5 -9 1 -4 -12 5 -14 4 -16 -5 -7
-6 6 -8 16 -5 22 9 14 26 14 26 0z m80 -10 c0 -6 -4 -7 -10 -4 -5 3 -10 11
-10 16 0 6 5 7 10 4 6 -3 10 -11 10 -16z m115 13 c-2 -3 1 -14 7 -26 6 -11 7
-18 3 -14 -4 4 -18 -6 -32 -23 -14 -16 -29 -27 -34 -23 -5 3 -9 0 -9 -5 0 -6
-7 -11 -16 -11 -9 0 -12 -5 -8 -12 4 -7 3 -10 -1 -5 -5 4 -17 0 -27 -10 -20
-17 -39 -10 -21 8 14 14 5 42 -10 32 -6 -4 -7 -1 -2 7 6 10 12 8 25 -8 10 -12
20 -18 24 -15 3 3 1 12 -5 20 -9 9 -8 13 0 13 6 0 11 -4 11 -10 0 -5 5 -10 11
-10 6 0 8 7 5 16 -3 9 -2 12 5 9 11 -8 39 12 39 28 0 7 -4 7 -12 -1 -7 -7 -16
-12 -21 -12 -5 0 1 9 14 19 17 14 28 16 37 9 15 -13 16 4 2 18 -7 7 -6 11 5
11 8 0 13 -2 10 -5z m-1145 -16 c0 -2 -7 -7 -16 -10 -8 -3 -12 -2 -9 4 6 10
25 14 25 6z m30 -6 c0 -5 -2 -10 -4 -10 -3 0 -8 5 -11 10 -3 6 -1 10 4 10 6 0
11 -4 11 -10z m975 -1 c4 -5 -2 -6 -11 -2 -13 5 -15 3 -9 -8 8 -12 6 -12 -8 0
-15 12 -17 11 -15 -9 2 -15 -3 -24 -14 -25 -10 -2 -18 1 -18 7 0 6 7 7 16 4
12 -5 15 -2 10 10 -3 9 -4 19 -2 23 7 10 45 11 51 0z m69 -8 c-10 -10 -21 -16
-24 -14 -3 3 4 11 14 19 28 20 33 17 10 -5z m-234 -23 c0 -6 -7 -8 -15 -4 -15
5 -17 2 -19 -46 0 -14 -5 -30 -9 -34 -4 -5 -5 -1 -2 8 9 22 -10 31 -37 18 -14
-7 -10 -1 10 15 18 15 31 33 28 40 -7 20 15 37 31 24 7 -7 13 -16 13 -21z
m845 18 c11 -7 25 -15 30 -16 24 -6 55 -24 55 -32 0 -4 3 -7 8 -7 17 3 29 -2
48 -19 10 -10 24 -20 29 -23 6 -2 10 -9 10 -16 0 -6 4 -15 8 -20 5 -4 7 -3 5
2 -1 6 2 10 7 10 6 0 9 -4 7 -9 -2 -5 4 -6 13 -2 9 3 18 -1 21 -9 4 -8 9 -13
13 -11 11 7 36 -12 28 -21 -5 -4 -12 -1 -17 7 -6 8 -10 10 -10 4 0 -18 27 -37
32 -23 5 15 36 -10 134 -106 43 -43 69 -76 66 -85 -3 -8 -1 -12 3 -8 11 11
105 -116 105 -142 0 -5 5 -10 11 -10 8 0 7 -6 -2 -17 -8 -9 -9 -14 -2 -10 11
7 18 -6 28 -50 18 -83 20 -75 -37 -113 -72 -47 -120 -68 -207 -91 -96 -25
-140 -30 -252 -31 -138 -2 -381 27 -365 42 2 3 -17 6 -42 7 -26 1 -72 11 -102
23 -30 11 -60 20 -67 20 -6 0 -24 5 -40 12 -15 6 -31 11 -35 10 -5 -1 -8 3 -8
9 0 6 -6 9 -12 6 -7 -2 -22 0 -33 6 -11 6 -29 12 -39 14 -11 2 -29 11 -39 21
-11 9 -22 16 -26 14 -3 -1 -27 8 -53 20 -48 23 -61 38 -34 38 8 0 21 3 30 6
11 4 14 0 11 -15 -2 -11 -1 -20 3 -20 19 3 33 -2 27 -10 -3 -6 4 -9 15 -8 22
1 27 13 8 21 -7 2 -2 4 11 3 13 -1 26 3 28 9 3 10 -17 11 -52 4 -23 -5 -34 1
-29 15 8 21 24 19 18 -2 -3 -12 -1 -11 6 2 12 23 86 59 101 50 5 -4 9 0 9 9 0
8 16 20 35 26 19 6 35 16 35 21 0 5 6 9 13 9 13 0 99 59 105 72 2 4 10 4 19 1
11 -4 14 -2 9 5 -4 7 -3 12 1 12 5 0 24 15 43 34 20 19 41 31 49 28 9 -3 12
-1 7 6 -4 7 8 28 31 52 21 22 49 53 62 70 13 17 26 28 30 25 3 -4 -4 -15 -16
-25 -19 -15 -20 -19 -7 -24 8 -3 12 -10 9 -16 -3 -5 -1 -10 6 -10 16 0 3 -13
-17 -16 -10 -2 -13 3 -9 17 4 11 2 19 -5 19 -6 0 -9 -4 -6 -9 8 -12 -19 -33
-29 -23 -4 4 -2 -4 5 -17 11 -21 10 -23 -3 -18 -14 5 -15 2 -7 -19 6 -14 10
-27 10 -28 0 -2 -12 -3 -27 -2 -20 1 -27 -3 -26 -14 2 -10 -5 -16 -19 -17 -16
-2 -18 1 -9 10 6 6 11 16 11 22 0 5 -5 2 -11 -8 -6 -9 -16 -14 -22 -11 -7 4
-1 -5 12 -19 26 -29 19 -37 -9 -12 -16 14 -19 13 -34 -10 -12 -18 -23 -25 -34
-20 -11 4 -9 -2 7 -19 30 -32 16 -34 -17 -3 -14 12 -22 17 -19 11 4 -6 -5 -16
-18 -22 -14 -7 -25 -16 -25 -22 0 -6 -4 -8 -10 -5 -6 4 -7 -1 -3 -12 6 -16 5
-16 -10 -4 -17 13 -31 9 -33 -10 -3 -22 -5 -23 -14 -9 -6 9 -10 11 -10 3 0 -7
-6 -10 -14 -7 -20 8 -29 -12 -16 -33 9 -16 10 -15 5 5 -4 13 -2 22 5 22 6 0 9
-4 6 -8 -2 -4 0 -14 6 -22 8 -12 8 -11 3 5 -3 11 -3 16 1 12 4 -4 14 -1 23 5
13 10 14 10 4 -2 -16 -17 -17 -30 -3 -30 6 0 9 3 8 8 -4 11 28 53 35 45 4 -3
-1 -12 -11 -20 -10 -9 -11 -12 -2 -7 8 4 12 4 8 -1 -4 -4 -2 -15 5 -24 11 -14
10 -15 -7 -1 -16 12 -18 12 -11 1 6 -10 4 -12 -6 -6 -11 7 -11 5 1 -11 14 -18
14 -18 -5 -4 -19 14 -19 14 -5 -4 8 -11 10 -17 3 -13 -8 5 -10 0 -7 -18 2 -14
0 -25 -6 -25 -6 0 -9 4 -6 9 3 5 -1 14 -9 21 -27 23 -17 -9 12 -36 21 -19 24
-27 14 -37 -10 -9 -11 -8 -6 6 8 20 -5 23 -24 5 -11 -10 -12 -10 -7 -1 5 9 1
11 -11 7 -14 -4 -15 -3 -4 4 9 7 10 12 2 16 -6 4 -11 2 -11 -4 0 -6 -4 -9 -8
-6 -4 2 -14 1 -21 -3 -9 -6 -10 -11 -2 -15 6 -4 11 -2 11 4 0 6 5 8 10 5 6 -4
8 -10 5 -15 -3 -5 0 -12 6 -16 8 -5 9 -3 4 6 -6 10 -4 12 7 7 9 -3 21 0 27 6
9 9 11 8 6 -5 -8 -21 5 -24 24 -5 11 10 12 7 6 -13 -5 -19 -4 -21 4 -10 8 12
13 12 23 2 18 -18 30 -15 23 7 -6 20 20 49 33 36 4 -4 1 -10 -5 -12 -7 -3 -13
-9 -13 -14 0 -5 9 -4 20 3 19 12 19 13 -1 34 l-21 22 21 11 c12 7 21 18 21 26
0 8 5 15 10 15 6 0 10 5 10 11 0 8 -4 8 -14 0 -10 -9 -17 -6 -29 13 -15 22
-14 24 9 35 32 14 35 14 28 -3 -5 -14 32 -43 43 -33 2 3 -5 8 -17 12 -12 4
-19 12 -17 18 5 16 28 21 25 6 -2 -7 6 -14 17 -16 19 -3 19 -3 1 5 -14 6 -16
11 -8 16 7 4 17 4 24 0 7 -4 8 -3 4 5 -4 6 -13 11 -19 10 -27 -3 -38 2 -31 14
6 8 3 8 -9 -1 -9 -8 -22 -10 -28 -6 -7 4 -9 3 -6 -3 4 -6 0 -13 -8 -17 -8 -3
-15 -2 -15 2 0 14 19 37 32 38 35 3 40 5 35 18 -3 7 0 19 6 25 15 15 32 14 20
-1 -10 -14 -16 -64 -6 -54 3 3 6 15 7 27 0 12 7 24 14 27 8 2 10 -3 6 -15 -5
-17 -5 -17 9 -1 8 10 18 14 22 10 5 -4 5 -2 1 5 -4 7 6 26 23 45 25 28 31 30
45 19 9 -7 16 -10 17 -5 1 5 5 -2 10 -16 l8 -25 -2 25 c-1 14 -7 25 -14 25 -7
0 -18 6 -25 14 -11 12 -10 13 4 8 10 -3 20 -2 23 3 7 11 -5 40 -17 40 -6 0 -5
-7 2 -15 7 -9 11 -18 8 -20 -3 -3 -11 1 -18 10 -11 13 -8 19 15 41 25 23 27
24 22 5 -5 -20 10 -43 48 -71 11 -8 17 -10 13 -6 -4 5 -1 14 8 20 13 10 12 14
-8 36 -22 23 -33 60 -18 60 15 0 19 -14 9 -27 -9 -9 -8 -13 0 -13 10 0 15 13
12 33 0 4 3 7 7 7 17 0 21 -13 11 -32 -12 -23 6 -52 27 -44 8 3 18 -3 23 -12
6 -9 10 -12 10 -7 0 13 -24 45 -33 45 -4 0 -4 -5 0 -11 4 -7 1 -10 -6 -7 -20
6 -24 28 -6 28 9 0 16 5 16 11 0 5 -5 7 -12 3 -6 -4 -8 -3 -4 4 3 6 16 10 27
9 15 -1 19 -7 16 -23 -3 -15 0 -21 9 -17 7 2 11 10 8 17 -2 6 4 12 16 13 11 1
20 -2 20 -8 0 -5 -5 -9 -11 -9 -8 0 -8 -4 1 -15 6 -8 9 -19 6 -24 -10 -15 12
-23 31 -11 16 9 15 10 -4 5 -18 -5 -22 -3 -17 9 3 9 9 14 13 12 4 -3 8 5 8 16
2 20 1 20 -12 2 -8 -11 -14 -14 -15 -9 0 13 10 26 39 50 l24 20 -13 -25 -13
-24 26 17 c30 19 47 23 30 6 -20 -20 -4 -38 29 -34 24 4 28 2 18 -9 -12 -16 3
-32 20 -21 6 3 13 -1 17 -10 5 -16 7 -16 16 1 7 13 5 20 -9 31 -15 11 -16 13
-2 13 9 0 20 -5 23 -10 4 -6 11 -8 16 -5 13 9 11 -9 -3 -23 -9 -9 -9 -12 0
-12 7 0 12 5 12 12 0 6 3 8 7 5 3 -4 12 -2 20 4 9 8 13 8 13 1 0 -6 -9 -16
-20 -22 -21 -11 -27 -30 -9 -30 5 0 8 4 5 9 -14 22 27 19 48 -4 l22 -24 24 22
c19 18 22 19 17 4 -4 -11 -1 -20 8 -23 8 -4 13 -9 10 -13 -2 -4 2 -8 10 -8 10
0 12 4 5 12 -6 7 -4 19 6 33 11 16 12 27 5 39 -10 17 -10 17 -11 0 0 -10 -5
-15 -10 -12 -6 4 -8 10 -5 15 3 5 -3 16 -12 26 -10 10 -17 19 -15 21 7 9 0 23
-9 17 -8 -4 -7 -9 2 -16 11 -7 10 -8 -4 -4 -11 4 -16 2 -11 -5 3 -6 -3 -5 -14
2 -12 7 -18 18 -15 23 4 6 8 5 11 -2 2 -7 8 -10 13 -7 5 4 3 12 -4 19 -9 10
-14 11 -20 2 -5 -6 -7 -2 -4 11 3 13 1 26 -4 29 -5 3 -9 2 -8 -3 1 -4 0 -10
-1 -13 -6 -17 -7 -39 -1 -35 4 2 8 -2 8 -10 0 -8 -5 -11 -10 -8 -6 3 -7 1 -3
-5 5 -8 1 -10 -10 -5 -11 4 -13 8 -6 11 6 2 -1 16 -19 33 -29 29 -46 38 -34
19 6 -10 -29 -50 -44 -50 -6 0 -8 9 -6 20 3 13 0 18 -7 14 -7 -5 -8 -2 -3 6 6
9 4 11 -5 5 -9 -6 -11 -4 -6 6 4 8 -1 4 -12 -8 -21 -24 -39 -19 -19 5 8 11 8
14 0 9 -6 -4 -15 -2 -19 4 -4 7 -3 9 3 6 5 -3 10 0 10 8 0 8 -4 12 -9 9 -5 -3
-19 2 -31 13 -21 18 -21 18 -7 -1 12 -16 12 -18 1 -11 -10 6 -12 4 -6 -5 5 -9
4 -11 -4 -6 -6 4 -10 2 -9 -4 2 -7 -8 -14 -22 -16 -17 -3 -21 -1 -11 5 9 6 10
11 2 15 -6 4 -11 3 -11 -2 0 -5 -7 -9 -16 -9 -15 0 -15 1 0 12 13 10 14 14 3
18 -7 2 -21 -1 -32 -9 -14 -10 -15 -14 -4 -15 11 0 11 -2 1 -6 -10 -4 -9 -9 5
-19 17 -13 17 -14 1 -8 -10 3 -18 1 -18 -5 0 -6 -5 -11 -11 -11 -8 0 -8 4 0
14 9 11 9 16 0 22 -7 4 -9 3 -6 -3 4 -6 -4 -9 -18 -7 -14 1 -23 -1 -20 -5 2
-4 -2 -8 -10 -8 -8 0 -12 5 -9 11 3 6 -1 3 -9 -7 -13 -16 -15 -16 -21 -2 -4
11 -2 14 6 9 7 -5 8 -3 3 6 -6 9 -4 11 5 5 8 -5 11 -4 6 3 -4 7 1 10 14 7 13
-3 18 0 14 7 -5 7 -2 8 7 3 8 -5 6 1 -4 12 -13 15 -15 23 -7 28 7 4 15 2 19
-4 5 -7 12 -2 19 14 15 32 15 32 -3 32 -9 0 -14 -6 -11 -13 3 -8 -4 -11 -19
-10 -19 3 -22 -1 -20 -21 3 -28 -10 -40 -19 -17 -7 18 30 84 46 84 6 0 8 3 5
7 -4 3 0 17 8 30 9 13 12 23 9 23 -4 0 0 8 9 18 10 10 14 22 10 25 -12 13 23
7 42 -7z m-1645 -10 c0 -2 -7 -7 -16 -10 -8 -3 -12 -2 -9 4 6 10 25 14 25 6z
m990 -6 c8 -5 11 -10 5 -10 -5 0 -17 5 -25 10 -8 5 -10 10 -5 10 6 0 17 -5 25
-10z m-54 -28 c-17 -16 -18 -16 -5 5 7 12 15 20 18 17 3 -2 -3 -12 -13 -22z
m-958 -5 c6 -5 12 -14 12 -20 0 -7 -5 -4 -11 6 -6 9 -14 15 -19 12 -5 -3 -11
-1 -14 4 -7 11 13 9 32 -2z m52 2 c0 -5 -4 -7 -10 -4 -5 3 -10 1 -10 -6 0 -7
-3 -10 -6 -6 -8 7 4 27 17 27 5 0 9 -5 9 -11z m915 -26 c-11 -3 -27 -10 -35
-17 -13 -10 -13 -9 -1 7 7 9 23 16 35 16 20 -1 20 -2 1 -6z m-927 -28 c-3 -3
-9 2 -12 12 -6 14 -5 15 5 6 7 -7 10 -15 7 -18z m489 -50 c0 -8 -6 -16 -14
-19 -16 -7 -17 6 -1 22 15 15 15 15 15 -3z m-76 -18 c-13 -13 -26 -3 -16 12 3
6 11 8 17 5 6 -4 6 -10 -1 -17z m1089 -31 c0 -2 -8 -10 -17 -17 -16 -13 -17
-12 -4 4 13 16 21 21 21 13z m239 -48 c-12 -22 -21 -24 -13 -3 8 21 -3 19 -34
-5 l-26 -21 -14 23 c-7 13 -11 15 -8 6 3 -10 1 -20 -4 -23 -6 -4 -10 -2 -10 4
0 5 -10 8 -21 6 -12 -3 -18 -1 -15 3 4 4 12 8 17 8 5 1 12 2 15 3 4 0 1 7 -5
15 -10 12 -9 14 6 11 10 -2 18 -4 18 -6 0 -1 10 -3 22 -4 12 -1 30 6 39 16 16
18 18 18 30 2 8 -12 9 -23 3 -35z m-2038 0 c7 -14 16 -17 32 -12 12 3 19 3 16
0 -4 -4 3 -18 15 -31 57 -64 78 -96 72 -111 -5 -14 -4 -15 9 -4 15 12 21 4 16
-24 -1 -5 5 -6 14 -2 9 3 14 2 12 -2 -3 -4 1 -13 9 -20 8 -7 14 -10 14 -7 0 3
10 -3 22 -15 12 -11 25 -20 30 -20 4 0 8 -9 8 -20 0 -11 5 -20 11 -20 5 0 7 5
3 11 -7 12 -6 12 39 -10 26 -14 38 -41 17 -41 -6 0 -9 5 -8 11 2 6 -4 14 -12
16 -12 4 -12 3 -2 -5 8 -5 14 -13 15 -18 1 -5 8 -8 14 -8 7 1 10 -3 6 -9 -3
-6 -1 -7 5 -3 6 4 8 14 5 22 -5 14 -3 14 16 3 11 -8 21 -16 21 -19 0 -3 10 -6
22 -7 11 -1 24 -7 28 -14 4 -6 12 -9 17 -6 5 3 19 -3 32 -12 18 -14 21 -20 11
-26 -9 -6 -11 -4 -5 5 5 9 4 11 -4 6 -15 -10 -4 -27 13 -20 18 7 77 -62 70
-81 -4 -8 -10 -15 -15 -15 -5 0 -9 -4 -9 -10 0 -5 7 -7 15 -4 8 4 15 12 15 20
0 8 5 14 11 14 6 0 9 -7 6 -14 -4 -10 -1 -13 9 -9 8 3 14 -1 14 -11 0 -9 4
-15 8 -13 11 3 72 -49 72 -62 0 -6 3 -10 8 -10 21 4 32 -3 32 -20 0 -11 4 -23
10 -26 6 -4 7 1 3 11 -6 15 -4 15 20 -1 25 -16 41 -55 17 -40 -6 4 -8 10 -5
14 2 5 -7 6 -20 3 -14 -2 -22 -8 -20 -13 3 -4 13 -6 23 -2 11 3 9 0 -5 -11
-13 -10 -23 -22 -23 -28 0 -7 7 -3 15 8 13 17 17 17 28 4 15 -18 37 -24 37
-10 0 6 14 -3 30 -20 17 -17 30 -28 30 -24 0 3 6 1 13 -5 14 -11 27 -5 27 12
0 5 -6 7 -13 4 -8 -3 -14 1 -14 9 0 17 7 17 31 -1 16 -12 17 -17 6 -30 -7 -9
-20 -13 -29 -10 -9 3 -5 -4 9 -15 15 -12 18 -18 8 -14 -11 4 -18 1 -18 -6 0
-6 4 -8 10 -5 6 4 7 -1 4 -12 -4 -13 -3 -15 4 -5 12 17 22 17 33 0 7 -10 9
-10 9 2 0 13 2 13 11 0 9 -13 10 -12 5 3 -5 15 -3 16 17 6 28 -15 37 -24 16
-17 -9 4 -16 1 -16 -7 0 -7 5 -11 12 -9 6 3 23 -12 38 -33 15 -21 27 -33 27
-27 0 5 -6 16 -12 24 -10 11 -9 11 6 0 18 -13 19 -13 11 0 -12 20 -15 41 -5
35 4 -3 11 2 14 10 4 13 2 13 -14 5 -28 -15 -36 -12 -14 6 10 8 14 13 7 10 -6
-4 -15 -1 -18 5 -4 5 -14 8 -22 5 -9 -4 -22 2 -30 11 -8 10 -12 12 -8 6 12
-25 -5 -12 -20 15 -15 26 -15 26 -9 2 6 -22 5 -23 -10 -11 -12 10 -13 17 -5
27 12 15 42 7 32 -9 -4 -6 0 -8 10 -4 8 3 21 -1 27 -9 7 -8 18 -14 24 -14 29
0 65 -26 63 -45 -1 -11 4 -20 11 -21 6 -1 15 -2 19 -3 3 0 -2 -10 -11 -20 -10
-11 -15 -26 -11 -33 3 -7 0 -5 -8 5 -15 18 -15 17 -22 -3 -5 -17 -10 -19 -21
-9 -7 6 -11 15 -8 20 5 8 -3 11 -23 8 -3 0 -10 6 -15 15 -5 9 -14 13 -20 10
-6 -4 -8 -2 -4 4 3 6 1 14 -6 19 -18 10 -38 13 -38 4 0 -16 -30 -7 -36 11 -3
10 -10 18 -15 18 -6 0 -8 4 -5 9 13 20 -36 34 -61 18 -17 -11 -33 0 -27 18 8
19 -31 55 -55 50 -25 -5 -37 11 -22 28 12 16 2 31 -23 35 -14 3 -17 -1 -12
-15 6 -14 5 -15 -5 -6 -21 21 -20 45 2 38 13 -5 17 -2 14 8 -11 27 -41 14 -36
-15 0 -5 -4 -8 -9 -8 -6 0 -10 5 -10 11 0 5 -4 7 -10 4 -5 -3 -21 5 -35 19
-14 14 -25 21 -25 16 0 -5 5 -12 10 -15 8 -5 7 -12 -2 -23 -12 -16 -11 -16 6
-2 17 13 19 13 14 0 -7 -22 -33 -18 -31 5 1 10 -5 31 -12 46 -8 14 -11 30 -7
34 4 4 -3 3 -15 -4 -12 -6 -29 -8 -37 -5 -11 4 -19 -2 -25 -17 -5 -13 -11 -19
-12 -14 -4 28 -4 41 3 57 8 17 2 18 -42 5 -8 -2 -11 -2 -7 1 4 2 0 10 -10 17
-17 13 -17 14 0 20 14 6 15 10 6 21 -9 12 -16 10 -39 -6 -16 -11 -34 -20 -42
-19 -7 0 -3 5 10 11 12 6 22 15 22 20 0 5 -4 7 -9 3 -5 -3 -12 -1 -16 5 -4 6
-10 8 -15 5 -5 -3 -13 2 -18 11 -6 11 -11 13 -16 5 -7 -11 -12 -9 -56 31 -27
25 -38 53 -18 45 7 -2 12 -9 11 -15 -3 -15 47 -47 72 -46 11 0 28 -3 37 -8 13
-6 16 -5 12 7 -3 8 -10 13 -14 10 -5 -3 -11 -1 -15 4 -3 6 -11 9 -18 7 -7 -1
-8 -1 -3 2 4 2 2 9 -5 14 -11 8 -10 9 4 4 9 -3 17 0 17 5 0 6 -9 9 -20 6 -11
-3 -17 -1 -14 4 3 5 2 9 -3 8 -4 -1 -15 -1 -23 0 -12 1 -13 3 -1 10 9 6 10 11
2 15 -6 4 -11 3 -11 -1 0 -5 -8 -9 -19 -10 -22 -2 -85 53 -76 66 11 19 -18 24
-32 6 -7 -11 -13 -13 -13 -7 0 7 -9 21 -20 32 -24 24 -13 26 19 3 14 -9 21
-11 17 -5 -5 8 -2 10 8 6 9 -3 16 -1 16 6 0 6 -4 9 -9 6 -5 -3 -16 5 -25 18
-12 20 -13 26 -2 35 7 6 16 7 21 3 4 -4 3 3 -4 15 -6 12 -8 29 -4 38 5 14 2
16 -18 10 -16 -4 -20 -3 -10 3 9 7 10 12 2 16 -6 4 -11 2 -11 -4 0 -6 -4 -9
-8 -6 -5 3 -9 -1 -9 -9 0 -8 4 -12 8 -10 3 3 6 -3 5 -13 -1 -11 6 -16 19 -15
17 1 18 0 4 -10 -23 -18 -32 -47 -14 -47 8 0 15 -4 15 -10 0 -15 -16 -12 -30
5 -7 8 -17 12 -24 8 -6 -3 -8 -3 -4 2 4 4 3 14 -3 21 -6 8 -7 14 0 18 6 4 8
13 4 22 -4 10 -9 12 -18 4 -10 -8 -20 -4 -41 14 -29 24 -29 25 -9 40 22 16 35
12 17 -6 -17 -17 -15 -31 4 -24 10 4 13 2 8 -7 -4 -6 1 -4 11 5 16 15 16 19 5
35 -11 14 -11 15 -1 6 7 -6 20 -9 28 -6 12 5 12 7 1 15 -9 7 -7 8 7 4 19 -6
19 -5 3 8 -20 15 -25 31 -6 20 7 -4 8 -3 4 5 -4 6 -11 9 -16 6 -5 -3 -12 0
-15 6 -4 5 -14 8 -22 5 -9 -4 -11 -2 -7 6 4 6 3 8 -4 4 -6 -3 -13 -2 -17 4 -4
6 -13 5 -25 -2 -26 -17 -40 0 -15 19 11 8 19 18 18 23 -5 16 27 -2 38 -22z
m1866 -3 c0 -8 -4 -12 -9 -9 -4 3 -8 9 -8 15 0 5 4 9 8 9 5 0 9 -7 9 -15z
m232 -13 c-5 -2 -9 -11 -9 -19 0 -10 -6 -13 -16 -9 -9 3 -18 6 -20 6 -3 0 3
11 13 23 13 18 20 21 29 13 7 -6 8 -12 3 -14z m97 11 c4 -10 8 -22 8 -26 2
-16 30 -26 44 -15 9 8 16 8 24 0 6 -6 16 -8 23 -6 6 3 18 -2 25 -11 7 -8 9
-15 5 -15 -4 0 -2 -7 5 -15 7 -8 17 -12 22 -9 5 3 4 -3 -4 -15 -16 -26 -28
-27 -21 -3 5 21 -22 49 -32 32 -3 -5 -12 -10 -18 -10 -7 1 -1 10 12 20 20 17
21 20 5 17 -36 -5 -45 -16 -32 -37 11 -18 14 -18 30 -3 10 9 18 12 18 6 0 -5
-8 -17 -17 -25 -16 -13 -20 -12 -39 8 -12 13 -20 25 -17 28 3 2 2 10 -2 16 -5
8 -11 8 -21 -1 -12 -10 -13 -9 -8 4 4 12 1 15 -16 12 -12 -2 -23 2 -26 10 -5
11 -11 12 -26 4 -15 -8 -23 -8 -32 1 -8 8 -7 10 6 5 11 -4 25 2 40 18 28 31
34 32 44 10z m-2177 -38 c9 0 15 -6 14 -12 -2 -7 1 -13 5 -13 5 0 9 -7 9 -16
0 -14 -2 -14 -14 2 -10 13 -13 14 -13 3 0 -11 -2 -11 -9 -1 -6 11 -10 10 -15
-4 -5 -13 -10 -14 -18 -6 -8 8 -15 9 -25 1 -9 -8 -13 -8 -13 -1 0 18 20 24 35
12 9 -8 15 -8 15 -2 0 6 -3 12 -7 15 -5 2 -2 2 5 1 19 -5 14 4 -9 17 -15 8
-19 8 -15 0 8 -12 -6 -15 -17 -4 -4 3 1 12 11 19 13 9 20 10 31 1 7 -7 21 -12
30 -12z m1775 11 c-3 -8 7 -25 21 -39 21 -19 24 -25 12 -30 -8 -3 -25 5 -38
19 -12 13 -17 24 -10 24 7 0 9 5 6 10 -3 6 -3 15 0 20 9 15 15 12 9 -4z m-44
-6 c0 -5 -4 -10 -10 -10 -5 0 -10 5 -10 10 0 6 5 10 10 10 6 0 10 -4 10 -10z
m384 -26 c9 -3 16 -11 16 -17 0 -8 -3 -8 -11 0 -6 6 -18 9 -27 6 -10 -4 -13
-2 -8 5 8 14 9 14 30 6z m-2104 -52 c0 -5 -7 -9 -15 -9 -8 0 -12 4 -9 9 3 4 9
8 15 8 5 0 9 -4 9 -8z m1680 -2 c-1 -3 -16 -22 -34 -42 -29 -34 -35 -36 -51
-24 -16 12 -21 11 -37 -8 -23 -28 -23 -11 0 19 17 22 20 22 35 8 18 -18 39 -9
30 13 -3 8 -2 14 3 13 27 -5 36 1 24 15 -9 12 -8 15 9 13 12 -1 21 -4 21 -7z
m-1596 -35 c-7 -16 -24 -21 -24 -6 0 8 7 13 27 20 1 1 0 -6 -3 -14z m1437 -72
c10 -12 10 -15 1 -9 -15 9 -36 -11 -40 -39 -2 -11 -8 -25 -13 -32 -7 -7 -6
-14 2 -19 8 -5 9 -3 4 6 -6 9 -4 11 4 5 22 -13 -4 -28 -28 -16 -18 10 -20 15
-9 34 6 12 11 24 10 27 -5 14 11 38 31 48 12 6 23 11 23 11 1 1 8 -7 15 -16z
m-13 -131 c5 -15 -28 -43 -42 -35 -5 3 2 11 14 18 15 8 19 15 11 19 -6 4 -11
2 -11 -5 0 -6 -8 -9 -20 -6 -11 3 -18 1 -14 -4 3 -5 -1 -7 -8 -6 -7 2 -9 2 -5
-1 4 -2 2 -11 -5 -20 -12 -15 -11 -16 5 -3 16 12 20 12 34 -2 15 -15 15 -18
-1 -36 -10 -11 -15 -26 -11 -33 3 -7 -7 2 -23 20 -30 33 -34 60 -14 85 7 7 10
16 8 18 -2 2 14 4 37 4 24 0 42 -5 45 -13z m-1263 -47 c22 -23 15 -36 -10 -19
-14 9 -23 19 -20 22 2 3 -1 12 -8 21 -11 14 -10 15 8 1 11 -8 24 -20 30 -25z
m275 -193 c0 -4 -10 -9 -22 -9 -18 -2 -20 0 -8 7 18 12 30 13 30 2z m320 -122
c0 -13 1 -13 10 0 5 8 10 13 11 10 0 -3 2 -13 4 -22 4 -21 -4 -22 -27 -4 -10
7 -15 16 -11 19 7 7 -10 10 -39 8 -9 -1 -19 3 -23 9 -4 6 -3 10 2 9 21 -4 34
2 27 13 -4 6 5 3 19 -8 15 -10 27 -26 27 -34z m1974 -13 c3 3 6 1 6 -6 0 -6
-12 -23 -26 -36 -15 -14 -24 -25 -20 -25 4 0 1 -10 -6 -22 -7 -13 -11 -26 -10
-30 1 -4 -7 -12 -18 -18 -16 -8 -20 -8 -18 2 2 7 -4 12 -13 12 -10 -1 -16 5
-14 15 1 9 7 15 13 14 14 -3 57 56 58 80 2 28 3 28 23 18 10 -6 21 -7 25 -4z
m-1871 -82 c4 3 5 2 2 -2 -3 -4 -13 -8 -21 -9 -9 -1 -13 0 -10 3 3 4 0 13 -6
22 -10 12 -7 12 8 -2 11 -9 24 -15 27 -12z m73 -30 c-3 -9 1 -18 9 -21 8 -4
12 -11 9 -16 -4 -6 -11 -3 -17 8 -15 26 -17 44 -5 44 6 0 7 -7 4 -15z m1640
-21 c-3 -19 -28 -45 -40 -41 -16 5 -13 41 4 48 23 9 38 7 36 -7z m-182 -20 c5
-13 9 -14 20 -4 10 7 21 8 33 2 10 -5 26 -8 35 -7 14 3 15 0 5 -16 -12 -20
-27 -25 -27 -11 0 5 -6 9 -12 9 -7 0 -20 2 -28 4 -11 3 -15 -4 -15 -25 0 -16
-6 -31 -12 -33 -7 -3 -13 1 -13 9 0 10 -3 9 -10 -2 -5 -8 -10 -10 -10 -4 0 5
5 15 10 20 7 7 6 15 -2 25 -7 8 -12 12 -10 10 1 -3 -8 -15 -20 -29 -24 -25
-24 -30 -1 -47 12 -9 11 -11 -6 -12 -14 -1 -19 3 -16 18 2 11 0 17 -6 14 -5
-4 -9 -1 -9 4 0 6 6 11 13 11 8 0 7 3 -3 10 -9 5 -19 5 -26 0 -6 -6 -14 -6
-18 -2 -4 4 -6 1 -4 -7 2 -7 -3 -16 -11 -19 -8 -3 -11 0 -7 7 4 6 2 11 -3 11
-6 0 -11 -5 -11 -11 0 -5 -5 -7 -10 -4 -6 4 -10 3 -9 -2 3 -19 -2 -27 -10 -14
-8 12 -13 12 -34 -2 -24 -15 -37 -14 -37 5 0 4 3 7 8 6 13 -4 117 35 124 46 4
6 8 8 8 3 0 -4 11 0 25 9 21 14 28 14 42 3 13 -11 15 -11 9 -1 -5 8 -1 19 10
27 25 19 31 18 38 -1z m81 -57 c10 -8 14 -16 9 -19 -5 -3 -17 3 -26 14 -21 21
-10 24 17 5z m-1390 -7 c3 -5 2 -17 -3 -26 -8 -14 -10 -14 -21 0 -13 15 -8 36
9 36 5 0 12 -4 15 -10z m1206 -4 c-9 -10 -8 -15 4 -19 8 -4 12 -13 9 -22 -6
-14 -8 -14 -23 -1 -16 15 -43 8 -43 -10 0 -5 -4 -8 -10 -6 -5 1 -7 -6 -3 -17
7 -22 -12 -38 -27 -23 -6 6 -6 12 3 17 8 6 10 4 4 -5 -5 -9 -4 -11 4 -6 17 11
3 26 -17 19 -14 -6 -15 -4 -4 9 10 13 10 18 1 24 -7 4 -9 3 -5 -4 3 -6 2 -13
-4 -17 -6 -4 -8 -10 -5 -15 3 -5 -6 -17 -19 -26 -21 -13 -24 -20 -16 -35 8
-14 6 -20 -10 -29 -13 -7 -20 -7 -20 0 0 5 5 10 10 10 6 0 10 5 10 11 0 5 -5
7 -12 3 -6 -4 -8 -3 -5 2 7 12 -27 34 -39 26 -13 -10 -16 -32 -3 -32 6 0 3 -7
-5 -16 -9 -8 -16 -19 -16 -23 0 -4 -7 -8 -15 -8 -9 0 -14 5 -12 11 3 6 9 10
15 9 5 -1 9 5 8 15 -2 11 -12 17 -28 16 -19 0 -25 4 -21 15 4 14 4 14 -6 1 -6
-8 -11 -10 -11 -4 0 6 -7 11 -15 11 -8 0 -11 -5 -8 -10 3 -6 1 -7 -5 -3 -6 3
-14 1 -18 -5 -5 -8 -3 -9 6 -4 8 5 11 4 7 -1 -3 -6 -2 -16 4 -24 7 -13 9 -13
10 0 1 8 1 18 0 23 -1 10 17 9 23 -1 2 -4 1 -14 -4 -22 -4 -7 -6 -19 -3 -27 4
-11 8 -10 19 4 7 10 14 13 14 7 0 -6 -6 -17 -14 -23 -11 -9 -19 -5 -40 19 -14
18 -26 26 -27 18 0 -10 -2 -11 -6 0 -4 10 -8 9 -17 -3 -9 -13 -17 -14 -39 -6
-18 7 -26 15 -21 23 4 7 -1 5 -12 -4 -15 -13 -22 -14 -36 -4 -15 11 -15 13 2
23 10 7 21 9 24 6 16 -16 53 -9 79 15 15 14 27 22 27 18 0 -5 6 -3 14 3 11 9
16 9 22 0 5 -9 11 -7 22 7 12 15 13 15 9 2 -3 -9 0 -22 8 -28 18 -15 43 26 26
43 -13 13 -15 30 -2 22 5 -3 13 -1 16 5 5 8 12 7 23 -2 9 -7 13 -8 9 -2 -10
17 41 24 54 8 9 -11 15 -11 32 1 14 10 25 11 32 5 9 -7 16 -6 24 4 7 8 18 13
25 10 7 -3 21 4 31 16 20 22 34 28 16 6z m-1136 -39 c7 -10 19 -16 26 -14 8 2
11 2 6 0 -4 -3 -4 -9 -1 -15 4 -5 -4 -4 -17 3 -13 7 -26 13 -29 13 -3 1 -4 8
-3 16 1 11 -2 11 -12 -3 -10 -14 -14 -15 -18 -3 -11 29 27 31 48 3z m177 8
c11 -14 10 -25 -3 -25 -5 0 -7 5 -4 10 3 6 -3 10 -14 10 -11 0 -23 4 -26 10
-8 13 38 8 47 -5z m123 -24 c3 -5 2 -12 -3 -15 -5 -3 -9 1 -9 9 0 17 3 19 12
6z m-183 -26 c3 3 11 -2 18 -10 8 -10 10 -19 4 -25 -7 -7 -19 2 -34 22 -13 18
-17 27 -8 21 8 -7 17 -11 20 -8z m1021 -12 c-4 -10 -9 -11 -19 -2 -19 15 -18
18 5 16 11 -1 17 -6 14 -14z m-810 -49 c-3 -8 -9 -14 -14 -14 -13 0 -11 17 4
24 6 3 2 3 -10 0 -17 -4 -22 -1 -20 14 1 18 3 19 23 5 13 -8 20 -21 17 -29z
m171 -9 c11 -8 16 -18 13 -22 -4 -3 -13 2 -21 12 -8 11 -18 15 -26 10 -9 -5
-11 -4 -6 3 9 15 17 15 40 -3z m60 -6 c-3 -5 -10 -7 -15 -3 -5 3 -7 10 -3 15
3 5 10 7 15 3 5 -3 7 -10 3 -15z m313 -7 c-8 -10 -12 -11 -15 -3 -3 8 -9 6
-19 -6 -13 -17 -14 -17 -4 2 5 12 19 21 30 21 16 0 18 -3 8 -14z"/>
<path d="M1076 2673 c-6 -14 -5 -15 5 -6 7 7 10 15 7 18 -3 3 -9 -2 -12 -12z"/>
<path d="M1236 2673 c-6 -14 -5 -15 5 -6 7 7 10 15 7 18 -3 3 -9 -2 -12 -12z"/>
<path d="M1313 2643 c1 -21 2 -21 19 -6 21 19 24 31 4 14 -11 -9 -15 -9 -19 1
-3 7 -4 3 -4 -9z"/>
<path d="M1221 2636 c-9 -11 -9 -16 1 -22 7 -4 10 -4 6 1 -4 4 0 14 10 21 9 7
12 14 6 14 -6 0 -17 -6 -23 -14z"/>
<path d="M1109 2623 c-13 -16 -12 -17 4 -4 9 7 17 15 17 17 0 8 -8 3 -21 -13z"/>
<path d="M1255 2631 c-6 -11 13 -26 22 -17 4 3 1 6 -6 6 -7 0 -9 5 -6 10 3 6
4 10 1 10 -3 0 -7 -4 -11 -9z"/>
<path d="M1066 2618 c3 -5 10 -6 15 -3 13 9 11 12 -6 12 -8 0 -12 -4 -9 -9z"/>
<path d="M1145 2620 c-3 -6 1 -7 9 -4 18 7 21 14 7 14 -6 0 -13 -4 -16 -10z"/>
<path d="M1193 2605 c0 -8 4 -15 9 -15 4 0 8 4 8 9 0 6 -4 12 -8 15 -5 3 -9
-1 -9 -9z"/>
<path d="M1155 2600 c-3 -6 1 -7 9 -4 18 7 21 14 7 14 -6 0 -13 -4 -16 -10z"/>
<path d="M1231 2600 c-9 -5 -4 -7 13 -7 29 0 32 2 13 10 -8 3 -20 2 -26 -3z"/>
<path d="M1126 2581 c-3 -5 6 -19 21 -32 20 -15 22 -20 8 -14 -11 4 -26 8 -32
8 -7 0 -13 6 -13 13 0 7 -4 16 -10 19 -6 4 -7 -2 -1 -17 5 -13 14 -22 20 -20
6 1 11 -5 11 -14 0 -9 -5 -12 -12 -8 -10 6 -9 3 0 -9 12 -14 11 -16 -7 -14
-15 1 -19 6 -15 19 3 10 0 18 -6 18 -6 0 -9 4 -6 8 2 4 0 14 -5 22 -8 13 -9
12 -7 -2 2 -9 -6 -23 -17 -31 -18 -14 -18 -15 8 -12 15 2 25 -1 21 -6 -3 -5
-9 -7 -14 -4 -5 3 -11 1 -14 -4 -4 -5 -22 -8 -41 -5 -18 2 -37 -1 -40 -6 -4
-6 -11 -8 -16 -5 -5 4 -9 1 -9 -4 0 -14 17 -14 25 -1 10 16 32 12 39 -7 4 -9
1 -21 -5 -27 -9 -8 -10 -8 -5 1 8 14 -13 30 -23 16 -7 -10 -18 -10 -44 2 -10
4 -21 5 -24 1 -4 -3 1 -6 10 -6 11 0 14 -5 10 -16 -5 -13 -7 -13 -14 -2 -5 7
-9 8 -9 3 0 -6 5 -16 12 -23 16 -16 -4 -16 -21 1 -11 10 -13 10 -7 0 4 -7 2
-13 -4 -13 -6 0 -9 -4 -6 -9 4 -5 1 -11 -6 -13 -8 -3 -6 -7 5 -11 9 -3 16 -3
16 1 -1 4 -1 14 0 22 1 13 3 13 10 0 6 -8 7 -18 5 -22 -3 -4 0 -8 6 -8 7 0 9
7 6 16 -4 10 -2 13 6 8 7 -5 8 -2 3 7 -6 11 -5 12 6 2 16 -16 29 -17 29 -2 0
5 -4 8 -9 5 -12 -8 -32 17 -23 29 10 14 32 17 32 5 0 -5 -4 -10 -10 -10 -5 0
-10 -4 -10 -8 0 -5 7 -9 15 -9 8 0 11 5 8 10 -3 6 -1 7 5 3 8 -4 10 -2 6 7 -3
8 -1 18 5 22 6 3 9 0 5 -8 -3 -8 2 -17 11 -21 11 -4 14 -2 10 7 -4 6 0 4 8 -6
9 -10 18 -14 21 -8 3 5 2 11 -4 13 -6 2 -2 8 9 15 15 9 23 9 37 -3 18 -14 18
-14 -1 -8 -17 5 -18 4 -5 -6 13 -10 13 -11 -2 -6 -10 3 -20 1 -23 -4 -3 -4 0
-10 7 -12 7 -3 8 -9 3 -19 -11 -16 -15 -39 -8 -39 2 0 11 6 19 14 9 10 10 16
3 18 -7 2 -2 15 13 31 14 15 28 24 31 20 4 -3 7 -1 7 5 0 7 -5 12 -12 12 -6 0
-8 3 -4 8 7 7 11 8 37 11 6 0 8 8 5 16 -3 8 -9 22 -13 32 -4 11 -3 14 6 9 7
-5 27 6 49 25 20 18 29 30 18 26 -10 -4 -25 -2 -34 5 -9 7 -13 9 -10 3 3 -5 0
-16 -8 -23 -14 -12 -15 -12 -18 7 -2 16 -14 23 -20 12z m56 -33 c-7 -7 -12 -8
-12 -2 0 14 12 26 19 19 2 -3 -1 -11 -7 -17z m-103 -68 c1 13 2 13 11 0 7 -11
10 -11 10 -2 0 7 5 10 10 7 8 -5 8 -11 1 -19 -6 -7 -10 -15 -8 -17 1 -2 -2 0
-8 6 -12 13 -24 12 -51 -2 -18 -11 -20 -9 -19 10 1 12 7 22 12 22 6 0 15 4 19
8 5 4 12 0 15 -10 6 -13 8 -14 8 -3z m71 6 c0 -3 -4 -8 -10 -11 -5 -3 -10 -1
-10 4 0 6 5 11 10 11 6 0 10 -2 10 -4z"/>
<path d="M1036 2468 c3 -5 10 -6 15 -3 13 9 11 12 -6 12 -8 0 -12 -4 -9 -9z"/>
<path d="M1017 2551 c-11 -14 -10 -15 7 -1 18 14 19 13 13 -2 -8 -24 0 -23 12
0 13 24 -14 26 -32 3z"/>
<path d="M981 2524 c0 -11 3 -14 6 -6 3 7 2 16 -1 19 -3 4 -6 -2 -5 -13z"/>
<path d="M1007 2519 c7 -7 15 -10 18 -7 3 3 -2 9 -12 12 -14 6 -15 5 -6 -5z"/>
<path d="M978 2398 c-15 -22 -14 -24 2 -25 13 -1 18 4 15 18 -5 27 10 24 23
-6 6 -14 17 -25 23 -25 7 0 9 3 6 7 -4 3 -2 12 4 20 6 7 10 13 8 14 -24 5 -37
8 -50 14 -11 4 -21 -2 -31 -17z m72 -4 c0 -8 -19 -13 -24 -6 -3 5 1 9 9 9 8 0
15 -2 15 -3z"/>
<path d="M927 2364 c-10 -13 -13 -24 -8 -24 6 0 15 8 20 18 6 9 11 13 11 8 0
-5 -7 -18 -17 -28 -10 -11 -12 -18 -4 -18 6 0 14 7 18 16 3 8 12 13 21 9 8 -3
20 -1 27 5 15 12 30 -3 21 -19 -6 -10 24 -25 32 -16 3 3 0 5 -6 5 -7 0 -12 4
-12 10 0 5 7 7 15 4 23 -9 18 2 -11 21 -20 13 -28 14 -40 4 -11 -9 -14 -9 -14
0 0 7 -4 10 -9 6 -6 -3 -13 1 -18 9 -6 11 -12 9 -26 -10z"/>
<path d="M873 2363 c9 -2 15 -8 12 -13 -3 -4 1 -13 9 -19 11 -9 14 -7 14 12 0
18 -6 23 -27 24 -14 0 -18 -1 -8 -4z"/>
<path d="M858 2332 c-4 -12 1 -18 13 -19 22 -2 25 10 5 26 -11 9 -15 7 -18 -7z"/>
<path d="M844 2272 c-12 -9 -17 -42 -6 -42 5 0 17 8 26 19 14 15 14 20 3 24
-8 3 -18 2 -23 -1z"/>
<path d="M837 2200 c3 -11 9 -17 15 -14 5 3 4 12 -3 20 -16 19 -18 18 -12 -6z"/>
<path d="M1810 2326 c0 -7 7 -21 16 -32 10 -12 14 -14 11 -4 -2 8 -1 22 4 30
5 12 2 16 -12 17 -10 1 -19 -4 -19 -11z"/>
<path d="M2142 2301 c-10 -6 -10 -10 1 -20 11 -9 17 -8 27 4 11 13 10 14 -5 9
-13 -5 -16 -4 -11 4 8 14 6 15 -12 3z"/>
<path d="M1635 2280 c-3 -5 -1 -10 4 -10 6 0 11 5 11 10 0 6 -2 10 -4 10 -3 0
-8 -4 -11 -10z"/>
<path d="M1768 2257 c-16 -13 -19 -39 -5 -53 4 -4 3 -12 -1 -19 -4 -6 1 -2 12
10 10 11 22 19 26 18 4 -1 7 11 7 27 0 26 -2 28 -14 12 -12 -16 -13 -16 -7 1
7 20 5 21 -18 4z m16 -38 c-8 -14 -21 -11 -21 5 0 8 6 12 14 9 7 -3 10 -9 7
-14z"/>
<path d="M1635 2249 c-4 -6 -5 -12 -2 -15 2 -3 7 2 10 11 7 17 1 20 -8 4z"/>
<path d="M1670 2220 c0 -5 5 -10 10 -10 6 0 10 5 10 10 0 6 -4 10 -10 10 -5 0
-10 -4 -10 -10z"/>
<path d="M2070 2199 c0 -5 5 -7 10 -4 6 3 10 8 10 11 0 2 -4 4 -10 4 -5 0 -10
-5 -10 -11z"/>
<path d="M1667 2183 c3 -7 6 -13 8 -13 2 0 5 6 8 13 3 8 -1 14 -8 14 -7 0 -11
-6 -8 -14z"/>
<path d="M1253 2166 c0 -8 3 -15 6 -14 19 2 24 -4 11 -12 -13 -8 -12 -10 3
-10 22 0 22 13 -1 33 -15 14 -19 14 -19 3z"/>
<path d="M1296 2158 c3 -5 10 -6 15 -3 13 9 11 12 -6 12 -8 0 -12 -4 -9 -9z"/>
<path d="M1795 2160 c3 -5 8 -10 11 -10 2 0 4 5 4 10 0 6 -5 10 -11 10 -5 0
-7 -4 -4 -10z"/>
<path d="M1366 2138 c3 -5 10 -6 15 -3 13 9 11 12 -6 12 -8 0 -12 -4 -9 -9z"/>
<path d="M1595 2140 c-3 -5 -1 -10 4 -10 6 0 11 5 11 10 0 6 -2 10 -4 10 -3 0
-8 -4 -11 -10z"/>
<path d="M1297 2126 c-4 -10 -3 -15 3 -11 6 3 10 1 10 -6 0 -7 3 -10 6 -6 3 3
2 13 -4 22 -8 16 -9 16 -15 1z"/>
<path d="M1330 2136 c0 -2 8 -10 18 -17 15 -13 16 -12 3 4 -13 16 -21 21 -21
13z"/>
<path d="M1759 2135 c-5 -20 -3 -31 6 -37 16 -12 24 -9 36 15 6 12 8 19 4 15
-4 -4 -16 -3 -26 3 -11 5 -20 7 -20 4z m26 -23 c-3 -3 -11 0 -18 7 -9 10 -8
11 6 5 10 -3 15 -9 12 -12z"/>
<path d="M1407 2119 c7 -7 15 -10 18 -7 3 3 -2 9 -12 12 -14 6 -15 5 -6 -5z"/>
<path d="M1490 2120 c0 -5 5 -10 11 -10 5 0 7 5 4 10 -3 6 -8 10 -11 10 -2 0
-4 -4 -4 -10z"/>
<path d="M1552 2107 c-8 -10 -6 -13 8 -14 11 -1 22 2 25 8 4 5 -2 6 -11 2 -12
-4 -15 -3 -10 5 10 16 1 15 -12 -1z"/>
<path d="M1350 2091 c14 -11 30 -21 35 -21 11 0 -7 14 -40 31 -13 7 -12 3 5
-10z"/>
<path d="M1479 2088 c15 -21 31 -23 31 -6 0 6 -3 8 -7 5 -3 -4 -13 -1 -22 6
-14 11 -14 10 -2 -5z"/>
<path d="M1588 2087 c-15 -12 -15 -14 3 -25 10 -7 19 -17 19 -23 0 -7 -6 -7
-17 2 -11 10 -14 10 -9 2 4 -7 3 -13 -2 -13 -5 0 -12 9 -15 20 -3 11 -11 20
-19 19 -10 0 -10 -2 0 -6 6 -2 12 -9 12 -14 0 -6 -5 -7 -11 -4 -11 7 -76 -33
-83 -52 -3 -6 3 -10 12 -8 9 2 17 4 17 5 0 1 9 3 21 4 11 1 21 -3 21 -10 0 -7
-4 -11 -9 -8 -5 3 -17 0 -26 -8 -16 -12 -16 -11 -2 7 13 18 13 19 0 9 -19 -14
-69 -24 -75 -14 -6 9 -63 5 -73 -4 -6 -7 16 -26 30 -26 4 0 15 8 24 18 17 16
18 16 11 -1 -5 -14 -3 -16 12 -8 13 7 18 6 18 -4 0 -9 -10 -12 -28 -10 -29 4
-47 -9 -29 -20 5 -3 10 0 10 7 0 8 3 9 8 3 4 -6 14 -10 22 -10 8 0 18 -4 23
-10 5 -6 12 -4 21 7 7 10 16 15 20 11 10 -10 36 -12 36 -3 0 5 9 7 20 5 11 -2
20 0 20 4 0 5 10 8 23 9 29 0 67 12 67 21 0 4 -7 8 -15 8 -8 0 -15 -5 -15 -11
0 -6 -5 -4 -10 4 -7 12 -10 12 -10 1 0 -7 -6 -11 -14 -8 -7 3 -19 0 -26 -6
-10 -9 -11 -9 -6 3 5 9 2 9 -7 -2 -8 -10 -17 -15 -20 -12 -11 12 37 43 50 33
7 -7 14 -6 18 1 3 5 2 10 -3 10 -5 0 -9 6 -9 13 0 7 13 13 29 14 15 0 28 -3
28 -8 0 -4 -9 -6 -21 -4 -12 2 -19 0 -17 -7 7 -20 37 -17 45 5 4 12 6 26 5 30
-1 5 2 6 8 2 5 -3 18 -1 29 5 14 7 22 7 26 0 4 -6 3 -10 -2 -9 -20 3 -34 -2
-28 -11 4 -6 12 -7 18 -4 7 4 8 3 4 -1 -10 -12 -38 -15 -31 -4 3 5 0 9 -7 9
-6 0 -9 -8 -6 -20 3 -11 1 -18 -4 -14 -5 3 -6 -2 -3 -11 6 -14 8 -14 21 2 9
11 12 12 8 3 -4 -8 1 -6 9 5 9 11 22 27 29 35 8 9 12 21 10 27 -2 6 6 18 18
27 22 15 22 16 3 22 -10 4 -22 9 -25 10 -3 2 -6 -9 -5 -24 1 -25 -1 -27 -41
-26 -23 1 -41 -3 -40 -9 4 -21 -22 -17 -34 5 -17 29 -17 41 -4 50 6 5 6 8 0 8
-5 -1 -18 -6 -27 -13z m11 -62 c11 2 23 0 26 -4 2 -5 -5 -8 -18 -7 -12 0 -21
-3 -20 -9 0 -5 -9 -18 -22 -27 -21 -16 -22 -16 -21 4 1 25 -30 33 -54 15 -13
-11 -13 -10 0 7 19 24 51 36 71 25 9 -5 26 -7 38 -4z m-69 -65 c0 -5 -4 -10
-10 -10 -5 0 -10 5 -10 10 0 6 5 10 10 10 6 0 10 -4 10 -10z m-21 -14 c20 -11
21 -14 7 -19 -10 -4 -19 -1 -22 8 -4 8 -10 15 -16 15 -5 0 -7 -4 -4 -8 2 -4 1
-14 -3 -21 -6 -9 -11 -10 -15 -2 -4 6 -2 11 3 11 6 0 10 3 10 8 -4 25 5 27 40
8z"/>
<path d="M1559 2018 c-5 -18 -6 -38 -1 -34 7 8 12 36 6 36 -2 0 -4 -1 -5 -2z"/>
<path d="M1450 2080 c0 -5 5 -10 11 -10 5 0 7 5 4 10 -3 6 -8 10 -11 10 -2 0
-4 -4 -4 -10z"/>
<path d="M1850 2045 c-14 -8 -20 -14 -14 -15 5 0 19 7 30 15 24 18 16 19 -16
0z"/>
<path d="M980 2190 c0 -5 7 -7 15 -4 8 4 15 8 15 10 0 2 -7 4 -15 4 -8 0 -15
-4 -15 -10z"/>
<path d="M971 2006 c-8 -10 -9 -16 -1 -21 5 -3 10 -5 11 -3 4 18 7 38 4 38 -1
0 -8 -6 -14 -14z"/>
<path d="M2015 2172 c4 -8 -1 -23 -11 -35 -18 -22 -18 -22 6 0 20 19 22 25 11
35 -11 11 -13 10 -6 0z"/>
<path d="M1706 2162 c-3 -5 1 -9 9 -9 8 0 12 4 9 9 -3 4 -7 8 -9 8 -2 0 -6 -4
-9 -8z"/>
<path d="M2545 2150 c-10 -11 -15 -20 -11 -20 3 0 0 -10 -9 -23 -8 -13 -13
-26 -10 -29 3 -3 -1 -11 -10 -18 -8 -7 -15 -18 -15 -24 0 -6 4 -5 9 3 5 8 19
16 31 18 17 2 21 -1 17 -14 -2 -10 -6 -25 -8 -33 -6 -23 -22 -30 -39 -17 -13
11 -13 10 -1 -6 8 -10 21 -15 30 -12 9 3 5 -4 -9 -16 -20 -16 -21 -18 -4 -10
12 6 25 7 29 3 3 -4 5 -2 3 3 -1 6 7 20 19 32 13 13 23 17 26 10 2 -6 6 -4 10
5 5 13 0 16 -24 13 -16 -2 -29 1 -29 6 0 6 4 8 9 5 10 -6 10 11 0 29 -7 13 39
57 46 44 4 -5 11 -6 17 -3 6 4 1 12 -13 20 -31 17 -40 17 -33 0 7 -17 -42 -50
-52 -34 -4 7 -3 8 4 4 8 -5 10 -1 6 11 -5 15 -4 16 5 3 8 -11 11 -12 11 -2 0
7 5 10 10 7 6 -3 10 -1 10 5 0 7 -7 10 -17 6 -11 -4 -9 1 6 13 21 16 27 17 39
5 7 -8 17 -12 22 -9 15 9 19 -23 4 -36 -8 -7 -13 -18 -10 -24 2 -7 -1 -18 -7
-24 -8 -8 -8 -11 0 -11 7 0 15 5 18 10 4 7 14 5 28 -5 28 -20 32 -19 34 5 2
20 -12 28 -19 11 -1 -5 -12 -3 -23 5 -17 13 -18 16 -4 29 9 10 23 13 33 9 14
-5 15 -9 4 -16 -8 -5 -4 -7 14 -4 15 3 31 0 34 -6 4 -6 3 -8 -2 -5 -6 3 -15
-3 -22 -14 -13 -21 -3 -26 16 -7 11 11 17 2 14 -24 -1 -3 5 -9 14 -12 8 -3 12
-1 9 4 -3 6 1 7 9 4 9 -3 13 -10 10 -15 -7 -12 -36 -8 -46 6 -5 6 -11 5 -17
-4 -5 -8 -11 -9 -15 -3 -3 6 0 12 6 15 7 2 -3 3 -22 2 -19 -1 -41 3 -47 8 -16
12 -17 -5 -2 -20 8 -8 7 -13 -2 -18 -7 -5 -10 -4 -5 3 3 6 2 13 -4 17 -19 12
-10 -22 12 -41 12 -10 18 -14 15 -7 -4 6 -3 14 2 18 6 3 8 12 4 20 -7 19 6 19
30 0 11 -7 26 -11 34 -8 10 4 14 0 11 -13 -2 -13 3 -19 15 -19 11 0 28 -11 38
-24 21 -25 29 -24 34 6 1 10 8 17 14 16 6 -2 11 3 11 10 0 6 8 -3 16 -20 20
-40 31 -42 30 -5 -1 15 -6 26 -13 25 -6 -2 -22 10 -33 25 -12 15 -26 28 -31
28 -5 1 -10 2 -11 4 -2 1 -11 3 -21 5 -11 2 -20 5 -21 7 -1 2 -10 15 -19 31
-10 15 -24 27 -32 27 -8 0 -15 5 -15 10 0 6 -3 9 -7 9 -22 -4 -43 2 -39 10 5
7 -14 21 -34 25 -3 1 -11 5 -17 9 -7 5 -13 5 -13 0 0 -4 -4 -2 -8 5 -7 9 -13
8 -27 -8z m25 -4 c0 -2 -7 -7 -16 -10 -8 -3 -12 -2 -9 4 6 10 25 14 25 6z
m242 -146 c1 5 9 0 17 -12 13 -21 13 -22 -3 -9 -16 13 -17 13 -14 -1 1 -9 -1
-17 -7 -17 -5 0 -9 8 -7 17 2 14 0 13 -9 -2 -10 -16 -8 -22 7 -33 10 -7 13
-13 6 -13 -6 0 -18 9 -26 21 -8 12 -19 19 -24 16 -5 -4 -9 0 -9 8 0 8 4 12 8
10 15 -10 40 8 35 24 -5 13 -3 12 8 -2 8 -10 16 -13 18 -7z m-242 -5 c0 -2 -6
-5 -13 -8 -8 -3 -14 1 -14 8 0 7 6 11 14 8 7 -3 13 -6 13 -8z m307 -50 c0 -8
-4 -12 -9 -9 -5 3 -6 10 -3 15 9 13 12 11 12 -6z"/>
<path d="M2583 2078 c-15 -19 -12 -46 6 -53 8 -3 12 -3 8 1 -4 4 -1 14 6 22 9
13 9 14 0 8 -16 -9 -17 6 -1 22 8 8 8 12 1 12 -6 0 -15 -6 -20 -12z"/>
<path d="M2647 2084 c-8 -8 1 -24 12 -24 4 0 8 7 8 15 0 16 -9 20 -20 9z"/>
<path d="M2687 1863 c6 -16 5 -16 -10 -4 -11 9 -17 10 -17 2 0 -6 5 -11 11
-11 5 0 7 -5 4 -10 -4 -6 -3 -9 2 -8 4 1 18 -3 31 -10 12 -7 27 -10 32 -7 14
8 0 35 -18 35 -13 0 -12 -3 4 -15 22 -17 12 -20 -16 -5 -11 6 -17 17 -14 24 3
8 1 17 -5 21 -7 4 -8 -1 -4 -12z"/>
<path d="M2340 1853 c5 -2 8 -9 4 -14 -3 -5 0 -9 6 -9 15 0 7 23 -8 26 -7 1
-8 0 -2 -3z"/>
<path d="M2580 1840 c0 -5 5 -10 10 -10 6 0 10 5 10 10 0 6 -4 10 -10 10 -5 0
-10 -4 -10 -10z"/>
<path d="M2430 1805 c0 -8 4 -15 10 -15 5 0 7 7 4 15 -4 8 -8 15 -10 15 -2 0
-4 -7 -4 -15z"/>
<path d="M2509 1803 c-13 -16 -12 -17 4 -4 9 7 17 15 17 17 0 8 -8 3 -21 -13z"/>
<path d="M2540 1813 c0 -7 5 -15 10 -18 6 -4 8 -11 5 -16 -4 -5 -1 -9 4 -9 15
0 13 11 -4 34 -8 11 -15 15 -15 9z"/>
<path d="M2673 1805 c0 -8 4 -15 9 -15 4 0 8 7 8 15 0 8 -4 15 -8 15 -5 0 -9
-7 -9 -15z"/>
<path d="M2754 1809 c-3 -6 -2 -15 3 -20 5 -5 9 -1 9 11 0 23 -2 24 -12 9z"/>
<path d="M2782 1800 c0 -14 2 -19 5 -12 2 6 2 18 0 25 -3 6 -5 1 -5 -13z"/>
<path d="M2588 1803 c7 -3 16 -2 19 1 4 3 -2 6 -13 5 -11 0 -14 -3 -6 -6z"/>
<path d="M3032 1798 c-16 -16 -15 -28 2 -28 8 0 18 -5 22 -12 5 -8 1 -9 -12
-4 -14 5 -16 4 -7 -5 12 -12 33 -5 33 11 0 5 -9 12 -20 15 -11 4 -18 11 -14
16 3 5 10 7 15 4 5 -4 9 -1 9 4 0 14 -13 14 -28 -1z"/>
<path d="M2878 1788 c-7 -17 15 -19 29 -3 4 4 3 5 -4 2 -6 -4 -13 -2 -15 5 -3
8 -6 6 -10 -4z"/>
<path d="M2453 1775 c-3 -9 -3 -18 -1 -21 3 -3 8 4 11 16 6 23 -1 27 -10 5z"/>
<path d="M2713 1770 c-1 -11 2 -22 6 -24 4 -3 7 4 6 14 -2 27 -10 33 -12 10z"/>
<path d="M2834 1776 c1 -8 5 -18 8 -22 4 -3 5 1 4 10 -1 8 -5 18 -8 22 -4 3
-5 -1 -4 -10z"/>
<path d="M2501 1757 c-13 -21 -12 -21 5 -5 10 10 16 20 13 22 -3 3 -11 -5 -18
-17z"/>
<path d="M2691 1764 c0 -11 3 -14 6 -6 3 7 2 16 -1 19 -3 4 -6 -2 -5 -13z"/>
<path d="M2811 1764 c0 -11 3 -14 6 -6 3 7 2 16 -1 19 -3 4 -6 -2 -5 -13z"/>
<path d="M2374 1754 c5 -12 2 -15 -9 -10 -9 3 -14 2 -10 -3 3 -5 0 -11 -7 -13
-7 -3 -5 -7 6 -11 9 -4 15 -3 11 2 -3 5 0 11 7 13 14 5 20 38 6 38 -6 0 -7 -7
-4 -16z"/>
<path d="M2605 1759 c-3 -4 2 -6 10 -5 21 3 28 13 10 13 -9 0 -18 -4 -20 -8z"/>
<path d="M2753 1752 c-8 -14 -8 -19 1 -19 7 0 13 9 13 19 1 10 1 18 0 18 -1 0
-7 -8 -14 -18z"/>
<path d="M2910 1760 c0 -5 5 -10 11 -10 5 0 7 5 4 10 -3 6 -8 10 -11 10 -2 0
-4 -4 -4 -10z"/>
<path d="M2950 1759 c0 -5 5 -7 10 -4 6 3 10 8 10 11 0 2 -4 4 -10 4 -5 0 -10
-5 -10 -11z"/>
<path d="M2970 1745 c0 -5 5 -17 10 -25 5 -8 10 -10 10 -5 0 6 -5 17 -10 25
-5 8 -10 11 -10 5z"/>
<path d="M3099 1748 c-5 -19 -8 -50 -4 -46 7 7 15 48 9 48 -2 0 -4 -1 -5 -2z"/>
<path d="M2416 1713 c-6 -14 -5 -15 5 -6 7 7 10 15 7 18 -3 3 -9 -2 -12 -12z"/>
<path d="M2476 1718 c3 -5 10 -6 15 -3 13 9 11 12 -6 12 -8 0 -12 -4 -9 -9z"/>
<path d="M2510 1719 c0 -5 5 -7 10 -4 6 3 10 8 10 11 0 2 -4 4 -10 4 -5 0 -10
-5 -10 -11z"/>
<path d="M2693 1705 c0 -8 4 -12 9 -9 5 3 6 10 3 15 -9 13 -12 11 -12 -6z"/>
<path d="M2335 1699 c-4 -6 -4 -13 -1 -16 3 -4 6 -1 6 6 0 7 5 9 12 5 7 -4 8
-3 4 4 -9 15 -13 15 -21 1z"/>
<path d="M2376 1702 c-3 -5 1 -9 9 -9 8 0 12 4 9 9 -3 4 -7 8 -9 8 -2 0 -6 -4
-9 -8z"/>
<path d="M2615 1700 c-3 -5 -1 -10 4 -10 6 0 11 5 11 10 0 6 -2 10 -4 10 -3 0
-8 -4 -11 -10z"/>
<path d="M2735 1700 c-3 -5 -1 -10 4 -10 6 0 11 5 11 10 0 6 -2 10 -4 10 -3 0
-8 -4 -11 -10z"/>
<path d="M3110 1700 c0 -5 5 -10 10 -10 6 0 10 5 10 10 0 6 -4 10 -10 10 -5 0
-10 -4 -10 -10z"/>
<path d="M2473 1685 c0 -8 4 -12 9 -9 5 3 6 10 3 15 -9 13 -12 11 -12 -6z"/>
<path d="M2400 1680 c-9 -6 -10 -10 -3 -10 6 0 15 5 18 10 8 12 4 12 -15 0z"/>
<path d="M2430 1680 c0 -5 5 -10 11 -10 5 0 7 5 4 10 -3 6 -8 10 -11 10 -2 0
-4 -4 -4 -10z"/>
<path d="M3096 1677 c3 -10 9 -15 12 -12 3 3 0 11 -7 18 -10 9 -11 8 -5 -6z"/>
<path d="M2291 1673 c-1 -17 16 -25 25 -12 4 7 3 9 -4 5 -5 -3 -13 0 -15 6 -4
9 -6 10 -6 1z"/>
<path d="M2320 1640 c-9 -6 -10 -10 -3 -10 6 0 15 5 18 10 8 12 4 12 -15 0z"/>
<path d="M2416 1638 c3 -5 10 -6 15 -3 13 9 11 12 -6 12 -8 0 -12 -4 -9 -9z"/>
<path d="M2349 1623 c-13 -16 -12 -17 4 -4 9 7 17 15 17 17 0 8 -8 3 -21 -13z"/>
<path d="M2196 1605 c4 -8 8 -15 10 -15 2 0 4 7 4 15 0 8 -4 15 -10 15 -5 0
-7 -7 -4 -15z"/>
<path d="M2308 1613 c7 -3 16 -2 19 1 4 3 -2 6 -13 5 -11 0 -14 -3 -6 -6z"/>
<path d="M1990 1603 c0 -6 -10 -10 -22 -9 -15 1 -22 -4 -20 -13 2 -8 -3 -11
-12 -8 -9 4 -18 2 -21 -3 -3 -4 6 -7 20 -5 16 1 29 -4 34 -14 10 -19 4 -41
-11 -41 -6 0 -5 7 3 18 11 14 10 13 -9 -2 -26 -23 -26 -20 -5 -37 14 -12 16
-12 8 0 -6 11 -4 13 8 8 19 -7 67 11 67 26 0 5 9 -1 21 -14 l20 -24 -16 27
c-9 15 -22 25 -29 22 -8 -3 -21 2 -30 11 -12 13 -14 21 -5 37 6 11 8 22 5 26
-3 3 -6 1 -6 -5z m-10 -19 c0 -8 -19 -13 -24 -6 -3 5 1 9 9 9 8 0 15 -2 15 -3z
m24 -63 c3 -5 -1 -11 -9 -14 -9 -4 -12 -1 -8 9 6 16 10 17 17 5z"/>
<path d="M2004 1585 c-15 -30 0 -47 31 -35 14 5 26 5 33 -2 7 -7 10 -5 7 8 -2
11 -4 23 -4 28 -1 6 -8 1 -16 -10 -15 -18 -15 -18 -8 0 4 13 3 17 -5 12 -6 -3
-14 0 -19 8 -6 12 -10 10 -19 -9z m20 -26 c-3 -5 -10 -7 -15 -3 -5 3 -7 10 -3
15 3 5 10 7 15 3 5 -3 7 -10 3 -15z"/>
<path d="M2356 1593 c-6 -14 -5 -15 5 -6 7 7 10 15 7 18 -3 3 -9 -2 -12 -12z"/>
<path d="M2393 1595 c0 -8 4 -12 9 -9 5 3 6 10 3 15 -9 13 -12 11 -12 -6z"/>
<path d="M3140 1605 c0 -2 6 -8 13 -14 10 -8 14 -7 14 2 0 8 -6 14 -14 14 -7
0 -13 -1 -13 -2z"/>
<path d="M2270 1569 c0 -5 5 -7 10 -4 6 3 10 8 10 11 0 2 -4 4 -10 4 -5 0 -10
-5 -10 -11z"/>
<path d="M2230 1550 c0 -5 7 -7 15 -4 8 4 15 8 15 10 0 2 -7 4 -15 4 -8 0 -15
-4 -15 -10z"/>
<path d="M2306 1538 c3 -5 10 -6 15 -3 13 9 11 12 -6 12 -8 0 -12 -4 -9 -9z"/>
<path d="M2200 1520 c-8 -5 -10 -10 -5 -10 6 0 17 5 25 10 8 5 11 10 5 10 -5
0 -17 -5 -25 -10z"/>
<path d="M2267 1510 c-3 -11 -3 -20 -1 -20 2 0 8 9 14 20 6 11 7 20 2 20 -6 0
-12 -9 -15 -20z"/>
<path d="M2215 1501 c-3 -5 0 -13 6 -17 8 -5 9 -3 4 6 -6 10 -4 12 9 7 10 -4
15 -3 11 3 -8 13 -22 13 -30 1z"/>
<path d="M2235 1469 c-4 -6 -5 -12 -2 -15 2 -3 7 2 10 11 7 17 1 20 -8 4z"/>
<path d="M2270 1455 c5 -7 6 -16 2 -21 -4 -5 -3 -5 2 -1 15 12 15 34 0 34 -9
0 -11 -4 -4 -12z"/>
<path d="M2202 1453 c-6 -2 -10 -9 -6 -14 8 -14 21 -11 21 6 0 8 -1 15 -1 14
-1 0 -7 -3 -14 -6z"/>
<path d="M2250 1416 c0 -2 8 -10 18 -17 15 -13 16 -12 3 4 -13 16 -21 21 -21
13z"/>
<path d="M2660 1935 c-7 -8 -16 -13 -20 -10 -5 3 -11 1 -14 -4 -9 -13 19 -8
38 8 8 7 21 9 27 5 8 -4 9 -3 5 4 -10 16 -21 15 -36 -3z"/>
<path d="M624 1918 c-4 -7 -4 -10 1 -6 4 4 14 3 22 -4 11 -8 12 -7 7 6 -7 19
-20 21 -30 4z"/>
<path d="M730 1817 c-8 -7 -24 -23 -35 -37 -14 -17 -15 -21 -3 -12 14 11 18
10 27 -6 7 -13 7 -22 0 -29 -6 -6 -4 -15 7 -24 10 -8 15 -9 11 -2 -4 6 -3 15
3 18 8 5 8 11 0 20 -19 23 -20 54 -2 64 9 5 15 12 12 14 -3 3 -12 0 -20 -6z"/>
<path d="M807 1744 c-3 -3 -3 -13 0 -22 5 -11 2 -14 -10 -9 -9 3 -18 3 -21 -1
-5 -8 22 -49 29 -44 16 8 26 1 16 -12 -8 -10 -9 -16 -1 -21 6 -3 8 -10 6 -14
-6 -9 2 -20 31 -44 17 -15 26 -16 41 -8 15 8 23 7 31 -3 6 -7 8 -16 5 -19 -3
-3 7 -4 24 -2 26 3 29 1 28 -22 -1 -19 5 -27 20 -29 13 -2 21 2 21 11 0 18 -9
19 -27 3 -12 -11 -12 -10 -2 4 10 13 10 17 0 21 -11 4 -10 6 0 6 8 1 10 6 5
14 -4 6 5 4 20 -6 28 -18 36 -11 15 13 -11 12 -10 12 5 1 15 -12 17 -12 11 3
-7 18 -20 21 -29 6 -4 -7 -17 -4 -35 7 -16 9 -27 20 -24 25 3 4 -1 8 -8 8 -10
0 -9 3 2 11 12 9 12 10 -4 5 -20 -7 -49 11 -41 25 6 8 -34 35 -47 31 -4 -1
-12 7 -18 18 -6 11 -15 18 -21 15 -8 -6 -13 8 -10 28 1 9 -4 9 -12 1z m21 -51
c-7 -9 -15 -10 -29 -2 -25 13 -24 14 10 14 23 1 28 -2 19 -12z m45 -16 c4 3 9
-2 13 -11 3 -9 11 -13 17 -9 5 3 7 2 4 -4 -3 -5 12 -26 33 -47 38 -36 44 -57
17 -55 -9 0 -8 2 1 6 6 2 10 9 7 13 -3 5 -12 7 -19 4 -8 -3 -17 -1 -21 5 -3 6
-1 11 6 11 7 0 2 11 -11 25 -25 27 -42 26 -20 0 11 -13 11 -19 -3 -32 -15 -16
-18 -15 -41 7 -14 12 -23 26 -21 31 3 4 1 10 -5 14 -6 4 -7 12 -3 18 4 7 8 15
9 20 1 4 2 10 3 13 0 4 7 1 14 -5 8 -6 17 -8 20 -4z"/>
<path d="M846 1668 c4 -11 1 -18 -6 -18 -9 0 -10 -3 -1 -13 6 -8 9 -16 6 -19
-3 -3 4 -13 15 -23 25 -23 52 -6 31 19 -7 8 -10 19 -8 24 3 4 2 14 -4 22 -7
13 -9 13 -9 1 0 -11 -4 -9 -15 5 -13 16 -14 16 -9 2z m28 -30 c-3 -4 -9 -8
-15 -8 -5 0 -9 4 -9 8 0 5 7 9 15 9 8 0 12 -4 9 -9z m14 -36 c5 -17 -13 -15
-27 2 -10 12 -9 14 5 12 10 -2 20 -8 22 -14z"/>
<path d="M1061 1544 c-9 -20 -15 -24 -23 -16 -7 7 -17 12 -22 12 -6 0 -4 -5 6
-10 13 -8 18 -35 8 -47 -2 -2 -3 -9 -4 -15 -1 -7 -8 -12 -15 -10 -7 1 -10 -2
-6 -8 3 -6 10 -8 15 -5 5 3 12 1 15 -5 5 -8 11 -8 20 0 14 12 40 -12 40 -39 0
-24 77 -22 81 3 5 32 -6 47 -26 36 -9 -5 -20 -6 -24 -2 -4 3 -4 -1 0 -11 5
-14 9 -15 20 -6 19 16 28 5 15 -18 -6 -10 -11 -12 -11 -5 0 6 -3 11 -7 11 -19
-3 -30 2 -31 14 -1 19 -10 56 -16 66 -3 5 1 12 10 15 8 3 12 10 9 16 -3 5 -2
10 3 10 6 0 13 -7 16 -16 3 -8 2 -12 -4 -9 -19 12 -23 -26 -4 -40 24 -18 38
-19 27 -2 -4 6 -8 27 -8 46 0 30 -4 34 -29 37 -16 2 -32 8 -36 14 -4 6 -12 -1
-19 -16z m39 -14 c-8 -5 -10 -10 -5 -10 6 0 1 -7 -9 -15 -11 -8 -15 -15 -8
-15 6 0 9 -9 7 -20 -2 -11 0 -20 5 -20 4 0 11 -8 14 -17 6 -14 2 -12 -17 5
-18 17 -26 19 -35 10 -7 -7 -12 -10 -13 -7 0 2 -2 12 -4 22 -2 11 -1 16 2 13
7 -6 32 24 33 38 0 5 -8 2 -17 -5 -16 -13 -17 -12 -4 3 7 10 17 16 21 13 5 -3
11 -1 15 5 3 5 12 10 18 10 7 0 6 -4 -3 -10z"/>
<path d="M1051 1468 c-13 -20 -12 -22 1 -11 8 7 18 10 22 6 4 -4 4 0 0 10 -8
21 -6 21 -23 -5z"/>
<path d="M1160 1490 c-19 -12 4 -39 31 -37 23 2 23 3 1 27 -12 13 -22 16 -32
10z m24 -16 c3 -8 2 -12 -4 -9 -6 3 -10 10 -10 16 0 14 7 11 14 -7z"/>
<path d="M1110 1456 c0 -2 7 -7 16 -10 8 -3 12 -2 9 4 -6 10 -25 14 -25 6z"/>
<path d="M1216 1452 c-4 -7 -5 -16 -1 -21 3 -5 1 -13 -5 -16 -6 -4 -10 -3 -9
2 3 19 -2 34 -9 29 -5 -3 -8 -15 -7 -28 3 -28 -13 -61 -24 -53 -5 3 -11 -1
-14 -8 -3 -7 3 -13 13 -13 10 0 17 4 14 7 -2 4 8 6 23 5 16 -2 29 -8 29 -15 1
-6 2 -16 3 -22 0 -5 5 -8 9 -5 5 3 20 -6 35 -20 16 -15 27 -20 27 -12 0 10 2
10 9 0 7 -11 9 -11 14 1 3 9 13 14 22 13 17 -2 36 -26 30 -36 -2 -3 5 -7 16
-7 10 -1 19 1 19 3 0 13 -22 44 -28 40 -4 -2 -13 2 -20 10 -7 8 -10 14 -6 14
3 0 1 6 -6 14 -6 8 -19 12 -27 9 -12 -5 -14 -3 -8 7 6 9 4 11 -5 5 -10 -6 -12
-4 -6 11 4 10 4 15 0 12 -4 -4 -16 -1 -26 7 -27 18 -50 9 -42 -18 5 -17 4 -18
-8 -6 -16 14 -17 32 -4 61 10 22 3 48 -8 30z m82 -105 c8 -10 21 -16 29 -15 9
2 17 -5 19 -15 1 -11 0 -16 -3 -13 -4 3 -12 1 -20 -5 -9 -9 -13 -8 -13 0 0 6
6 11 13 11 8 0 7 3 -3 10 -15 9 -33 -7 -24 -22 8 -13 -1 -9 -35 16 -20 15 -28
27 -21 31 6 4 9 13 6 20 -13 34 23 22 52 -18z m96 -73 c3 -8 2 -12 -4 -9 -6 3
-10 10 -10 16 0 14 7 11 14 -7z"/>
<path d="M1255 1357 c1 -40 27 -63 38 -33 3 8 -4 23 -17 35 l-22 21 1 -23z
m29 -28 c-3 -5 -10 -7 -15 -3 -5 3 -7 10 -3 15 3 5 10 7 15 3 5 -3 7 -10 3
-15z"/>
<path d="M1402 1235 c4 -4 3 -14 -4 -22 -6 -7 -9 -15 -7 -18 3 -2 10 4 17 15
9 15 9 21 -1 26 -6 4 -9 4 -5 -1z"/>
<path d="M1430 1199 c0 -5 5 -7 10 -4 6 3 10 8 10 11 0 2 -4 4 -10 4 -5 0 -10
-5 -10 -11z"/>
<path d="M1467 1164 c8 -13 12 -29 8 -36 -4 -7 0 -5 8 5 10 12 17 15 22 7 4
-6 12 -9 18 -7 7 2 21 -3 32 -12 17 -14 18 -14 7 0 -6 9 -8 19 -4 23 4 4 3 6
-3 5 -5 -2 -20 5 -32 16 -13 10 -34 20 -47 21 -23 1 -24 0 -9 -22z m47 -7 c10
-9 12 -17 6 -17 -6 0 -13 7 -17 16 -4 11 -8 12 -13 4 -5 -8 -9 -7 -13 3 -7 20
15 16 37 -6z"/>
<path d="M1660 1126 c0 -2 8 -10 18 -17 15 -13 16 -12 3 4 -13 16 -21 21 -21
13z"/>
<path d="M1746 1042 c-3 -6 0 -15 8 -21 10 -9 17 -7 27 6 7 10 9 15 5 11 -5
-4 -15 -3 -22 3 -7 6 -14 6 -18 1z"/>
<path d="M2826 1902 c-2 -4 0 -14 6 -22 8 -12 9 -11 4 4 -5 14 -2 17 9 12 9
-3 13 -2 10 4 -7 12 -22 13 -29 2z"/>
<path d="M2905 1860 c-3 -6 1 -7 9 -4 18 7 21 14 7 14 -6 0 -13 -4 -16 -10z"/>
<path d="M670 1859 c0 -5 5 -7 10 -4 6 3 10 8 10 11 0 2 -4 4 -10 4 -5 0 -10
-5 -10 -11z"/>
<path d="M2161 1676 c-15 -18 -23 -59 -10 -51 5 4 7 11 4 16 -4 5 -1 9 6 9 7
0 9 3 6 7 -4 3 -2 12 4 20 6 7 9 13 6 13 -2 0 -10 -6 -16 -14z"/>
<path d="M2118 1489 c12 -12 21 -13 30 -6 16 13 7 22 -23 22 -23 1 -23 0 -7
-16z"/>
<path d="M3465 1173 c1 -10 -4 -26 -13 -35 -8 -10 -12 -18 -7 -18 4 0 -3 -8
-15 -18 -20 -16 -20 -19 -6 -31 13 -11 15 -10 11 7 -2 12 3 23 12 26 9 4 13 9
9 13 -3 4 3 16 14 28 18 19 19 24 6 34 -12 10 -14 9 -11 -6z"/>
<path d="M3316 1051 c-4 -5 -2 -12 3 -15 5 -4 12 -2 15 3 4 5 2 12 -3 15 -5 4
-12 2 -15 -3z"/>
<path d="M3144 1014 c5 -11 9 -24 10 -31 5 -27 12 -21 11 9 -1 18 -8 34 -15
36 -9 3 -11 -1 -6 -14z"/>
<path d="M3190 1026 c0 -2 7 -7 16 -10 8 -3 12 -2 9 4 -6 10 -25 14 -25 6z"/>
<path d="M3077 1003 c-4 -6 0 -13 8 -17 8 -3 17 0 21 6 4 6 3 8 -4 4 -5 -3
-12 -1 -14 6 -3 8 -6 9 -11 1z"/>
<path d="M1830 959 c0 -5 5 -7 10 -4 6 3 10 8 10 11 0 2 -4 4 -10 4 -5 0 -10
-5 -10 -11z"/>
<path d="M2991 927 c-8 -10 -7 -14 2 -14 8 0 14 6 14 14 0 7 -1 13 -2 13 -2 0
-8 -6 -14 -13z"/>
<path d="M2900 908 c18 -22 10 -31 -11 -12 -12 10 -23 14 -27 9 -11 -15 -46
-19 -36 -4 4 7 3 10 -3 6 -5 -3 -9 -16 -8 -29 1 -13 -5 -28 -12 -33 -12 -9
-10 -11 7 -12 11 -1 18 2 15 8 -4 5 1 12 10 15 12 5 13 9 5 14 -8 5 -9 10 -1
14 6 4 16 -2 23 -13 11 -18 13 -18 25 -3 12 15 13 15 7 -3 -5 -18 -4 -18 8 -4
7 9 17 18 23 20 5 2 10 12 10 21 1 12 -2 15 -10 8 -7 -6 -16 -6 -23 0 -9 7 -9
7 -2 -2z m-16 -29 c-3 -5 -10 -7 -15 -3 -5 3 -7 10 -3 15 3 5 10 7 15 3 5 -3
7 -10 3 -15z"/>
<path d="M2716 863 c-4 -5 -11 -8 -15 -8 -4 0 -21 -12 -39 -27 -26 -22 -29
-27 -15 -32 10 -4 20 -1 25 9 5 8 15 12 21 9 7 -4 9 -3 4 1 -10 11 23 46 36
38 6 -3 7 -1 3 5 -8 14 -10 14 -20 5z m-16 -16 c0 -2 -12 -14 -27 -28 l-28
-24 24 28 c23 25 31 32 31 24z"/>
<path d="M2576 821 c-4 -5 -2 -12 3 -15 5 -4 12 -2 15 3 4 5 2 12 -3 15 -5 4
-12 2 -15 -3z"/>
<path d="M556 2187 c3 -10 9 -15 12 -12 3 3 0 11 -7 18 -10 9 -11 8 -5 -6z"/>
<path d="M537 2147 c-3 -8 1 -14 8 -14 7 0 11 6 8 14 -3 7 -6 13 -8 13 -2 0
-5 -6 -8 -13z"/>
<path d="M514 2032 c-10 -15 -8 -18 10 -19 11 -1 16 1 9 4 -7 2 -9 11 -6 19 7
20 0 18 -13 -4z"/>
<path d="M510 1986 c0 -2 9 -6 20 -9 11 -3 18 -1 14 4 -5 9 -34 13 -34 5z"/>
<path d="M535 1910 c-3 -6 1 -7 9 -4 18 7 21 14 7 14 -6 0 -13 -4 -16 -10z"/>
<path d="M548 1883 c7 -3 16 -2 19 1 4 3 -2 6 -13 5 -11 0 -14 -3 -6 -6z"/>
<path d="M546 1861 c-4 -5 4 -7 16 -3 16 4 19 2 13 -8 -5 -9 -4 -11 4 -6 6 4
9 12 6 17 -8 12 -32 12 -39 0z"/>
<path d="M560 1800 c-12 -7 -10 -9 8 -7 12 0 22 5 22 9 0 11 -12 10 -30 -2z"/>
<path d="M599 1783 c-1 -5 -1 -12 0 -17 1 -4 -4 -15 -11 -24 -12 -14 -11 -14
10 -1 23 15 29 29 11 29 -5 0 -7 5 -4 10 3 6 4 10 1 10 -3 0 -7 -3 -7 -7z"/>
<path d="M3485 1720 c-3 -5 -1 -10 5 -10 6 0 8 -5 4 -12 -4 -7 -3 -8 4 -4 6 4
9 13 5 21 -6 18 -10 19 -18 5z"/>
<path d="M3507 1680 c-22 -26 -22 -33 1 -19 10 7 19 18 19 25 0 17 1 18 -20
-6z"/>
<path d="M3531 1653 c-1 -17 16 -25 25 -12 4 7 3 9 -4 5 -5 -3 -13 0 -15 6 -4
9 -6 10 -6 1z"/>
<path d="M666 1638 c3 -5 10 -6 15 -3 13 9 11 12 -6 12 -8 0 -12 -4 -9 -9z"/>
<path d="M718 1633 c7 -3 16 -2 19 1 4 3 -2 6 -13 5 -11 0 -14 -3 -6 -6z"/>
<path d="M686 1622 c-3 -5 1 -9 9 -9 8 0 12 4 9 9 -3 4 -7 8 -9 8 -2 0 -6 -4
-9 -8z"/>
<path d="M3500 1620 c-13 -8 -13 -10 0 -10 11 0 11 -3 2 -12 -19 -19 -14 -30
11 -23 22 7 22 7 2 -8 -11 -8 -24 -13 -30 -10 -5 3 -5 0 2 -7 9 -10 8 -16 -3
-27 -8 -8 -11 -20 -7 -26 13 -21 13 -47 0 -44 -11 2 -13 -3 -16 -46 -1 -12 -6
-16 -13 -11 -7 4 -10 3 -5 -1 4 -5 17 -10 29 -12 16 -3 18 0 10 10 -9 10 -8
17 0 25 9 9 9 12 0 12 -7 0 -12 5 -12 11 0 5 4 8 9 4 5 -3 12 -1 16 4 3 6 12
8 20 4 8 -3 15 0 15 6 0 10 -14 15 -34 12 -5 -1 -4 4 2 12 9 10 9 17 -1 26 -9
10 -6 10 11 0 12 -8 17 -16 12 -17 -6 -2 -4 -9 6 -16 13 -10 14 -17 6 -33 -6
-11 -8 -23 -5 -27 3 -3 1 -6 -6 -6 -7 0 -10 -4 -6 -9 3 -6 -3 -14 -12 -20 -15
-9 -14 -10 7 -7 14 3 27 5 30 6 3 2 9 2 14 1 5 -1 1 10 -8 24 -18 27 -17 27 6
20 18 -5 20 -4 8 4 -8 6 -11 11 -6 11 4 0 1 11 -8 25 -17 26 -9 34 12 13 9 -9
12 -9 12 0 0 7 -5 12 -11 12 -5 0 -7 4 -4 10 4 6 -1 7 -12 4 -16 -5 -15 -3 2
11 14 12 16 16 5 15 -28 -4 -41 0 -35 10 4 6 9 9 13 6 4 -2 16 1 27 5 18 9 18
9 -2 5 -13 -2 -23 0 -23 5 0 5 6 9 13 9 6 1 2 6 -11 13 -12 7 -20 16 -16 20 4
4 14 1 22 -6 13 -11 14 -9 1 11 -16 25 -18 26 -39 12z m25 -108 c-3 -3 -11 0
-18 7 -9 10 -8 11 6 5 10 -3 15 -9 12 -12z m6 -125 c-10 -9 -11 -8 -5 6 3 10
9 15 12 12 3 -3 0 -11 -7 -18z"/>
<path d="M730 1580 c0 -5 5 -10 11 -10 5 0 7 5 4 10 -3 6 -8 10 -11 10 -2 0
-4 -4 -4 -10z"/>
<path d="M757 1551 c-4 -17 -3 -21 5 -13 5 5 8 16 6 23 -3 8 -7 3 -11 -10z"/>
<path d="M3590 1559 c0 -5 5 -7 10 -4 6 3 10 8 10 11 0 2 -4 4 -10 4 -5 0 -10
-5 -10 -11z"/>
<path d="M839 1508 c-7 -23 -4 -35 7 -35 8 0 14 4 14 9 0 4 -5 8 -11 8 -5 0
-7 5 -4 10 3 6 4 10 1 10 -3 0 -6 -1 -7 -2z"/>
<path d="M897 1449 c7 -7 15 -10 18 -7 3 3 -2 9 -12 12 -14 6 -15 5 -6 -5z"/>
<path d="M3576 1447 c3 -10 9 -15 12 -12 3 3 0 11 -7 18 -10 9 -11 8 -5 -6z"/>
<path d="M3499 1446 c-1 -3 -2 -9 -3 -13 -1 -5 -4 -13 -8 -19 -8 -12 0 -24 15
-24 6 0 7 3 4 6 -3 4 -2 15 3 25 7 12 7 20 0 24 -5 3 -11 4 -11 1z"/>
<path d="M3570 1410 c-9 -6 -10 -10 -3 -10 6 0 15 5 18 10 8 12 4 12 -15 0z"/>
<path d="M930 1405 c0 -5 5 -17 10 -25 5 -8 10 -10 10 -5 0 6 -5 17 -10 25 -5
8 -10 11 -10 5z"/>
<path d="M3595 1400 c-3 -5 -1 -10 4 -10 6 0 11 5 11 10 0 6 -2 10 -4 10 -3 0
-8 -4 -11 -10z"/>
<path d="M3441 1364 c-12 -9 -19 -19 -16 -24 3 -5 1 -11 -4 -15 -6 -3 -7 -13
-4 -22 4 -10 2 -14 -4 -10 -6 4 -18 -2 -27 -11 -15 -17 -14 -20 5 -41 14 -14
28 -20 42 -17 12 3 16 3 9 0 -6 -3 -10 -10 -7 -14 3 -5 0 -12 -6 -16 -8 -4 -9
-3 -5 4 4 7 2 12 -3 12 -6 0 -11 -4 -11 -9 0 -6 -9 -9 -20 -8 -11 1 -20 4 -20
7 0 4 -7 7 -15 7 -13 0 -20 -16 -16 -39 0 -4 -7 -4 -17 -1 -9 3 -14 3 -10 -2
4 -4 2 -15 -5 -23 -9 -13 -9 -14 1 -8 21 13 35 -4 18 -23 -12 -13 -12 -18 -4
-18 7 0 20 -2 28 -4 8 -2 14 3 15 11 0 8 9 15 20 15 21 -1 52 32 41 42 -3 3 3
20 14 37 11 19 16 37 11 45 -10 16 -22 16 -31 1 -5 -9 -9 -9 -14 -1 -4 6 -2
11 3 11 20 0 26 2 38 12 7 5 17 7 22 3 7 -3 8 0 5 9 -7 18 -24 21 -24 5 0 -6
-6 -9 -14 -6 -7 3 -18 1 -24 -5 -6 -6 -12 -6 -17 3 -6 8 -4 10 5 4 8 -5 11 -4
6 3 -3 6 1 9 11 7 25 -4 38 6 22 17 -10 6 -7 7 8 3 18 -5 22 -3 17 9 -3 8 -13
12 -22 9 -13 -4 -14 -3 -3 5 8 6 10 15 6 22 -5 9 -4 11 3 6 7 -4 12 -1 12 6 0
10 2 10 9 -1 5 -7 15 -11 22 -9 10 3 8 8 -7 16 -16 9 -26 8 -43 -4z m-71 -184
c0 -5 -4 -10 -10 -10 -5 0 -10 5 -10 10 0 6 5 10 10 10 6 0 10 -4 10 -10z m45
-25 c-1 -11 -6 -18 -11 -16 -5 1 -8 7 -7 12 2 4 -4 6 -12 2 -13 -4 -13 -8 -3
-22 7 -9 8 -13 4 -9 -12 10 -37 -12 -29 -25 3 -6 1 -7 -6 -3 -9 6 -9 11 -1 21
8 9 6 14 -7 19 -15 6 -15 9 -3 16 8 5 17 7 21 4 4 -2 9 2 12 9 8 22 44 15 42
-8z"/>
<path d="M3560 1359 c0 -5 5 -7 10 -4 6 3 10 8 10 11 0 2 -4 4 -10 4 -5 0 -10
-5 -10 -11z"/>
<path d="M1040 1339 c-13 -9 -13 -10 0 -6 8 2 21 -3 28 -12 11 -14 11 -13 2 7
-12 25 -11 25 -30 11z"/>
<path d="M3465 1333 c4 -10 8 -24 8 -31 0 -7 6 -11 12 -8 7 2 18 -1 25 -7 10
-10 10 -8 2 9 -6 12 -9 23 -7 26 3 3 -7 10 -21 17 -24 10 -26 10 -19 -6z"/>
<path d="M1182 1283 c0 -5 -2 -16 -7 -26 -4 -11 -3 -23 3 -29 8 -8 9 -5 6 9
-3 12 -1 24 5 27 14 9 14 26 1 26 -5 0 -9 -3 -8 -7z"/>
<path d="M1056 1253 c-6 -14 -5 -15 5 -6 7 7 10 15 7 18 -3 3 -9 -2 -12 -12z"/>
<path d="M1107 1259 c7 -7 15 -10 18 -7 3 3 -2 9 -12 12 -14 6 -15 5 -6 -5z"/>
<path d="M1200 1226 c0 -2 7 -7 16 -10 8 -3 12 -2 9 4 -6 10 -25 14 -25 6z"/>
<path d="M1240 1200 c0 -6 4 -9 9 -6 5 4 12 1 14 -4 3 -6 4 -5 3 2 -3 15 -26
23 -26 8z"/>
<path d="M1323 1154 l-28 -26 29 21 c15 11 32 18 37 15 5 -3 9 0 9 5 0 18 -17
12 -47 -15z"/>
<path d="M1246 1158 c3 -5 10 -6 15 -3 13 9 11 12 -6 12 -8 0 -12 -4 -9 -9z"/>
<path d="M1395 1134 c-9 -14 -14 -28 -11 -32 3 -3 6 0 6 6 0 7 5 11 11 10 6
-2 12 7 14 20 2 28 1 28 -20 -4z"/>
<path d="M1415 1101 c-9 -15 29 -31 46 -20 12 8 12 10 -1 8 -29 -3 -41 1 -35
11 3 6 4 10 1 10 -3 0 -7 -4 -11 -9z"/>
<path d="M3215 1060 c-2 -4 1 -7 8 -8 7 0 22 -3 34 -6 15 -3 20 -1 17 8 -5 12
-52 17 -59 6z"/>
<path d="M1356 1038 c3 -5 10 -6 15 -3 13 9 11 12 -6 12 -8 0 -12 -4 -9 -9z"/>
<path d="M1535 1040 c-4 -6 -1 -9 7 -8 7 2 12 -3 11 -9 -2 -7 2 -13 7 -13 12
0 12 3 4 24 -7 18 -20 21 -29 6z"/>
<path d="M1806 1024 c-15 -21 -16 -28 -5 -35 8 -4 19 -3 26 3 10 8 19 6 33 -7
11 -10 20 -15 20 -10 0 4 11 0 25 -9 14 -9 25 -14 25 -11 0 4 13 -3 29 -14 15
-11 31 -18 34 -14 4 3 12 1 20 -5 10 -8 13 -7 14 7 1 13 -5 18 -20 17 -17 -1
-21 4 -20 22 3 20 -2 24 -23 21 -4 0 -10 5 -15 12 -6 10 -11 10 -22 1 -12 -10
-16 -9 -21 4 -4 12 -10 13 -19 6 -8 -7 -18 -5 -34 8 -12 9 -19 20 -16 24 4 3
2 6 -3 6 -5 0 -17 -12 -28 -26z m65 -31 c12 -16 11 -16 -8 1 -17 14 -26 16
-36 7 -18 -14 -30 -2 -16 15 13 16 37 6 60 -23z m53 -4 c4 6 13 8 19 4 7 -4
17 -8 22 -8 6 -1 9 -7 7 -14 -1 -7 1 -18 5 -25 4 -7 1 -5 -7 4 -8 8 -22 15
-30 15 -18 -1 -50 24 -50 38 0 6 6 3 13 -8 10 -13 16 -15 21 -6z"/>
<path d="M1926 982 c-3 -5 1 -9 9 -9 8 0 12 4 9 9 -3 4 -7 8 -9 8 -2 0 -6 -4
-9 -8z"/>
<path d="M3422 1000 c0 -14 2 -19 5 -12 2 6 2 18 0 25 -3 6 -5 1 -5 -13z"/>
<path d="M3451 1004 c0 -11 3 -14 6 -6 3 7 2 16 -1 19 -3 4 -6 -2 -5 -13z"/>
<path d="M1590 988 c-12 -22 -12 -22 6 -6 10 10 15 20 12 24 -4 3 -12 -5 -18
-18z"/>
<path d="M1553 985 c0 -8 4 -12 9 -9 5 3 6 10 3 15 -9 13 -12 11 -12 -6z"/>
<path d="M1635 979 c-4 -6 -4 -13 -1 -16 3 -4 6 -1 6 6 0 7 5 9 12 5 7 -4 8
-3 4 4 -9 15 -13 15 -21 1z"/>
<path d="M3310 982 c0 -5 12 -14 27 -21 20 -9 29 -9 37 0 8 9 8 10 -2 5 -7 -4
-24 0 -37 8 -14 9 -25 13 -25 8z"/>
<path d="M1655 950 c-3 -6 1 -7 9 -4 18 7 21 14 7 14 -6 0 -13 -4 -16 -10z"/>
<path d="M3330 940 c0 -5 5 -10 11 -10 5 0 7 5 4 10 -3 6 -8 10 -11 10 -2 0
-4 -4 -4 -10z"/>
<path d="M1676 921 c9 -9 34 -9 34 -1 0 5 -9 8 -20 7 -10 -1 -17 -3 -14 -6z"/>
<path d="M3267 915 c3 -8 9 -12 14 -9 12 7 11 11 -5 17 -10 4 -13 1 -9 -8z"/>
<path d="M2136 913 c-11 -11 -6 -21 9 -19 22 3 28 13 11 19 -8 3 -17 3 -20 0z"/>
<path d="M2054 902 c4 -3 14 -7 22 -8 9 -1 13 0 10 4 -4 3 -14 7 -22 8 -9 1
-13 0 -10 -4z"/>
<path d="M1830 890 c0 -5 7 -7 15 -4 8 4 15 8 15 10 0 2 -7 4 -15 4 -8 0 -15
-4 -15 -10z"/>
<path d="M3095 890 c3 -5 8 -10 11 -10 2 0 4 5 4 10 0 6 -5 10 -11 10 -5 0 -7
-4 -4 -10z"/>
<path d="M2230 882 c0 -14 28 -23 36 -11 4 6 14 3 26 -8 20 -18 21 -18 7 5
-15 24 -24 27 -34 12 -5 -8 -11 -7 -21 1 -8 7 -14 7 -14 1z"/>
<path d="M2330 881 c0 -6 4 -13 10 -16 6 -3 7 1 4 9 -7 18 -14 21 -14 7z"/>
<path d="M2486 882 c-3 -5 1 -9 9 -9 8 0 12 4 9 9 -3 4 -7 8 -9 8 -2 0 -6 -4
-9 -8z"/>
<path d="M2529 877 c6 -6 4 -19 -6 -33 -20 -31 -5 -30 40 1 21 13 39 20 42 14
4 -5 10 -7 15 -4 5 3 12 0 15 -5 7 -12 45 15 45 31 0 10 -29 7 -47 -4 -6 -4
-14 -1 -16 5 -4 10 -6 10 -6 0 -1 -8 -6 -10 -13 -5 -18 11 -80 11 -69 0z m50
-4 c12 9 13 9 7 0 -4 -7 -15 -17 -24 -22 -14 -7 -18 -5 -18 10 0 12 4 15 10 9
6 -6 15 -5 25 3z m80 -10 c-6 -7 -15 -10 -20 -7 -13 8 -3 21 15 21 12 0 13 -4
5 -14z"/>
<path d="M1775 871 c-3 -5 -2 -12 3 -15 5 -3 9 1 9 9 0 17 -3 19 -12 6z"/>
<path d="M3095 859 c-4 -6 -5 -12 -2 -15 2 -3 7 2 10 11 7 17 1 20 -8 4z"/>
<path d="M3135 850 c-4 -6 -12 -7 -18 -4 -7 4 -9 4 -5 -1 4 -4 2 -15 -4 -24
-7 -9 0 -5 15 8 15 14 27 26 27 28 0 7 -9 3 -15 -7z"/>
<path d="M3176 847 c3 -10 9 -15 12 -12 3 3 0 11 -7 18 -10 9 -11 8 -5 -6z"/>
<path d="M3070 835 c0 -8 4 -15 10 -15 5 0 7 7 4 15 -4 8 -8 15 -10 15 -2 0
-4 -7 -4 -15z"/>
<path d="M3235 840 c-3 -5 -1 -10 4 -10 6 0 11 5 11 10 0 6 -2 10 -4 10 -3 0
-8 -4 -11 -10z"/>
<path d="M2072 824 c-7 -8 -8 -14 -3 -14 10 0 25 19 20 25 -2 1 -10 -3 -17
-11z"/>
<path d="M3030 829 c0 -5 -6 -7 -12 -3 -7 4 -10 3 -5 -1 13 -15 46 -13 40 2
-6 16 -23 17 -23 2z"/>
<path d="M1995 810 c-4 -6 -12 -7 -18 -4 -7 4 -8 3 -4 -1 13 -15 34 -14 34 1
0 17 -4 18 -12 4z"/>
<path d="M2180 811 c-8 -6 -17 -8 -21 -5 -4 2 -10 1 -13 -4 -2 -4 6 -8 20 -8
13 0 24 4 24 9 0 5 8 3 18 -4 15 -13 16 -12 3 4 -7 9 -14 17 -15 17 0 0 -8 -4
-16 -9z"/>
<path d="M2087 803 c-3 -5 6 -9 20 -10 19 -1 22 1 12 8 -17 11 -26 11 -32 2z"/>
<path d="M2270 806 c0 -2 7 -7 16 -10 8 -3 12 -2 9 4 -6 10 -25 14 -25 6z"/>
<path d="M2965 800 c-3 -6 1 -7 9 -4 18 7 21 14 7 14 -6 0 -13 -4 -16 -10z"/>
<path d="M2260 786 c0 -2 7 -7 16 -10 8 -3 12 -2 9 4 -6 10 -25 14 -25 6z"/>
<path d="M2339 788 c-6 -21 -5 -37 2 -32 5 3 6 10 3 16 -5 8 -1 9 10 5 10 -4
15 -3 11 3 -5 9 -24 14 -26 8z"/>
<path d="M2988 783 c7 -3 16 -2 19 1 4 3 -2 6 -13 5 -11 0 -14 -3 -6 -6z"/>
<path d="M2510 769 c0 -5 5 -7 10 -4 6 3 10 8 10 11 0 2 -4 4 -10 4 -5 0 -10
-5 -10 -11z"/>
<path d="M2910 765 c0 -8 2 -15 4 -15 2 0 6 7 10 15 3 8 1 15 -4 15 -6 0 -10
-7 -10 -15z"/>
<path d="M2555 749 c-4 -6 -5 -12 -2 -15 2 -3 7 2 10 11 7 17 1 20 -8 4z"/>
<path d="M2616 751 c-4 -5 3 -7 14 -4 23 6 26 13 6 13 -8 0 -17 -4 -20 -9z"/>
<path d="M3035 749 c-4 -6 -5 -12 -2 -15 2 -3 7 2 10 11 7 17 1 20 -8 4z"/>
<path d="M2770 730 c-6 -12 -5 -17 5 -17 7 0 11 6 8 14 -4 9 0 11 11 7 9 -3
16 -2 16 3 0 16 -31 11 -40 -7z"/>
<path d="M2690 736 c0 -3 9 -10 19 -16 15 -7 22 -7 27 2 4 7 4 10 -1 6 -4 -4
-16 -3 -26 3 -11 5 -19 7 -19 5z"/>
<path d="M2814 718 c-4 -7 -4 -10 1 -6 4 4 15 2 24 -5 14 -11 14 -10 2 6 -16
20 -18 21 -27 5z"/>
<path d="M2695 700 c3 -5 8 -10 11 -10 2 0 4 5 4 10 0 6 -5 10 -11 10 -5 0 -7
-4 -4 -10z"/>
</g>
</svg>
